<svg width="47" height="41" viewBox="0 0 47 41" fill="none" xmlns="http://www.w3.org/2000/svg">
<g clip-path="url(#clip0_1662_10001)">
<path d="M31.957 26.8995C31.957 26.1428 32.5759 25.5271 33.3363 25.5271C34.0968 25.5271 34.7156 26.1428 34.7156 26.8995C34.7156 27.6561 34.0968 28.2719 33.3363 28.2719C32.5759 28.2719 31.957 27.6349 31.957 26.8995ZM32.5215 29.7639H34.4168V39.7084H32.2577V30.0264C32.2577 29.8817 32.3761 29.7639 32.5215 29.7639Z" fill="#202130"/>
<path d="M36.1914 34.7834C36.1914 31.8205 38.5503 29.5525 41.468 29.5525C44.3856 29.5525 46.7446 31.8205 46.7446 34.7834C46.7446 37.7463 44.405 40.0143 41.468 40.0143C38.5309 40.0143 36.1914 37.727 36.1914 34.7834ZM44.5874 34.7834C44.5874 32.9728 43.2275 31.641 41.468 31.641C39.7085 31.641 38.3486 32.9728 38.3486 34.7834C38.3486 36.5939 39.7085 37.9258 41.468 37.9258C43.2275 37.9258 44.5874 36.5939 44.5874 34.7834Z" fill="#202130"/>
<path d="M8.83558 25.6982C8.69008 25.6982 8.57175 25.816 8.57175 25.9608V30.3848C7.70072 29.7633 6.62601 29.4023 5.4543 29.4023C2.53472 29.4043 0.175781 31.6704 0.175781 34.6352C0.175781 37.6 2.53472 39.8661 5.45236 39.8661C6.62407 39.8661 7.69878 39.5013 8.56981 38.8778V39.6074H10.7406V25.6982H8.83364H8.83558ZM5.45236 37.7776C3.69285 37.7776 2.33297 36.4457 2.33297 34.6352C2.33297 32.8246 3.69285 31.4928 5.45236 31.4928C7.21186 31.4928 8.55623 32.8111 8.56981 34.6082V34.6641C8.55623 36.4592 7.20216 37.7795 5.45236 37.7795V37.7776Z" fill="#202130"/>
<path d="M21.1735 29.7699C21.028 29.7699 20.9096 29.8877 20.9096 30.0324V30.4976C20.0386 29.8761 18.9639 29.5151 17.7922 29.5151C14.8746 29.5151 12.5156 31.7831 12.5156 34.746C12.5156 37.7089 14.8746 39.9769 17.7922 39.9769C18.9639 39.9769 20.0386 39.6121 20.9096 38.9887V39.7183H23.0804V29.768H21.1735V29.7699ZM17.7922 37.8904C16.0327 37.8904 14.6728 36.5585 14.6728 34.748C14.6728 32.9374 16.0327 31.6056 17.7922 31.6056C19.5517 31.6056 20.8961 32.9239 20.9096 34.719V34.7769C20.8961 36.572 19.542 37.8904 17.7922 37.8904Z" fill="#202130"/>
<path d="M27.3623 31.0141V29.7459H25.467C25.3215 29.7459 25.2031 29.8637 25.2031 30.0085V34.7858C25.2031 34.7954 25.2031 34.807 25.2031 34.8166C25.2031 34.8224 25.2031 34.8282 25.2031 34.834V39.6924H27.3623V34.7858C27.3778 33.0215 28.6892 31.7186 30.3963 31.6781V29.5896C29.2614 29.607 27.9966 29.9718 27.3623 31.016V31.0141Z" fill="#202130"/>
<path d="M46.4467 19.6807H30.1824C32.8149 17.6791 34.5142 14.5232 34.5142 10.9716C34.5123 4.92032 29.5829 0.015625 23.5013 0.015625C17.4197 0.015625 12.4884 4.92032 12.4884 10.9735C12.4884 14.5251 14.1878 17.6791 16.8202 19.6827H0.555952C0.342561 19.6827 0.167969 19.8564 0.167969 20.0687V22.6726C0.167969 22.8849 0.342561 23.0586 0.555952 23.0586H46.4467C46.66 23.0586 46.8346 22.8849 46.8346 22.6726V20.0687C46.8346 19.8564 46.66 19.6827 46.4467 19.6827V19.6807ZM23.5013 3.28156C27.7711 3.28156 31.2299 6.72508 31.2299 10.9716C31.2299 15.2181 27.7691 18.6616 23.5013 18.6616C19.2335 18.6616 15.7727 15.2181 15.7727 10.9716C15.7727 6.72508 19.2335 3.28156 23.5013 3.28156Z" fill="#F2600F"/>
</g>
<defs>
<clipPath id="clip0_1662_10001">
<rect width="46.6667" height="40" fill="white" transform="translate(0.167969 0.015625)"/>
</clipPath>
</defs>
</svg>
