<svg width="320" height="320" viewBox="0 0 320 320" fill="none" xmlns="http://www.w3.org/2000/svg">
<mask id="mask0_739_19026" style="mask-type:alpha" maskUnits="userSpaceOnUse" x="0" y="0" width="320" height="320">
<circle cx="160" cy="160" r="160" fill="#D9D9D9"/>
</mask>
<g mask="url(#mask0_739_19026)">
<rect width="320" height="320" fill="white"/>
<path d="M200.871 162.024C193.372 150.596 183.395 133.81 160.515 133.81C137.636 133.81 129.088 149.524 118.195 163.274C118.195 143.989 137.636 123.989 160.515 123.989C183.395 123.989 200.871 142.382 200.871 162.024Z" fill="#F3D2A2"/>
<rect x="44.4666" y="243.116" width="232.81" height="22.1019" fill="#BDD5DB" stroke="#0C6478" stroke-width="2.81673"/>
<rect x="45.875" y="256.306" width="229.993" height="7.49977" fill="white"/>
<rect x="126.23" y="218.813" width="66.248" height="11.4282" fill="white"/>
<mask id="path-7-outside-1_739_19026" maskUnits="userSpaceOnUse" x="91.4414" y="107.779" width="138" height="138" fill="black">
<rect fill="white" x="91.4414" y="107.779" width="138" height="138"/>
<path fill-rule="evenodd" clip-rule="evenodd" d="M160.154 242.203C196.446 242.203 225.866 212.783 225.866 176.491C225.866 140.199 196.446 110.779 160.154 110.779C123.862 110.779 94.4414 140.199 94.4414 176.491C94.4414 212.783 123.862 242.203 160.154 242.203ZM160.153 220.584C184.505 220.584 204.246 200.842 204.246 176.491C204.246 152.139 184.505 132.398 160.153 132.398C135.801 132.398 116.06 152.139 116.06 176.491C116.06 200.842 135.801 220.584 160.153 220.584Z"/>
</mask>
<path fill-rule="evenodd" clip-rule="evenodd" d="M160.154 242.203C196.446 242.203 225.866 212.783 225.866 176.491C225.866 140.199 196.446 110.779 160.154 110.779C123.862 110.779 94.4414 140.199 94.4414 176.491C94.4414 212.783 123.862 242.203 160.154 242.203ZM160.153 220.584C184.505 220.584 204.246 200.842 204.246 176.491C204.246 152.139 184.505 132.398 160.153 132.398C135.801 132.398 116.06 152.139 116.06 176.491C116.06 200.842 135.801 220.584 160.153 220.584Z" fill="white"/>
<path d="M223.049 176.491C223.049 211.227 194.89 239.387 160.154 239.387V245.02C198.001 245.02 228.683 214.339 228.683 176.491H223.049ZM160.154 113.596C194.89 113.596 223.049 141.755 223.049 176.491H228.683C228.683 138.644 198.001 107.962 160.154 107.962V113.596ZM97.2581 176.491C97.2581 141.755 125.417 113.596 160.154 113.596V107.962C122.306 107.962 91.6247 138.644 91.6247 176.491H97.2581ZM160.154 239.387C125.417 239.387 97.2581 211.227 97.2581 176.491H91.6247C91.6247 214.339 122.306 245.02 160.154 245.02V239.387ZM201.429 176.491C201.429 199.287 182.949 217.767 160.153 217.767V223.4C186.06 223.4 207.063 202.398 207.063 176.491H201.429ZM160.153 135.214C182.949 135.214 201.429 153.694 201.429 176.491H207.063C207.063 150.583 186.06 129.581 160.153 129.581V135.214ZM118.877 176.491C118.877 153.694 137.357 135.214 160.153 135.214V129.581C134.245 129.581 113.243 150.583 113.243 176.491H118.877ZM160.153 217.767C137.357 217.767 118.877 199.287 118.877 176.491H113.243C113.243 202.398 134.245 223.4 160.153 223.4V217.767Z" fill="#F57C00" mask="url(#path-7-outside-1_739_19026)"/>
<path d="M121.404 156.5C121.404 140.892 129.599 130.792 148.291 125.749C155.001 123.939 162.087 123.773 168.91 125.096C186.064 128.422 192.894 135.815 198.188 155.249C190.688 142.392 173.903 132.303 158.546 132.303C141.85 133.017 125.69 144.893 121.404 156.5Z" fill="#BDD5DB"/>
<mask id="path-10-outside-2_739_19026" maskUnits="userSpaceOnUse" x="91.4414" y="107.779" width="138" height="138" fill="black">
<rect fill="white" x="91.4414" y="107.779" width="138" height="138"/>
<path fill-rule="evenodd" clip-rule="evenodd" d="M160.154 242.203C196.446 242.203 225.866 212.783 225.866 176.491C225.866 140.199 196.446 110.779 160.154 110.779C123.862 110.779 94.4414 140.199 94.4414 176.491C94.4414 212.783 123.862 242.203 160.154 242.203ZM160.153 220.584C184.505 220.584 204.246 200.842 204.246 176.491C204.246 152.139 184.505 132.398 160.153 132.398C135.801 132.398 116.06 152.139 116.06 176.491C116.06 200.842 135.801 220.584 160.153 220.584Z"/>
</mask>
<path d="M223.049 176.491C223.049 211.227 194.89 239.387 160.154 239.387V245.02C198.001 245.02 228.683 214.339 228.683 176.491H223.049ZM160.154 113.596C194.89 113.596 223.049 141.755 223.049 176.491H228.683C228.683 138.644 198.001 107.962 160.154 107.962V113.596ZM97.2581 176.491C97.2581 141.755 125.417 113.596 160.154 113.596V107.962C122.306 107.962 91.6247 138.644 91.6247 176.491H97.2581ZM160.154 239.387C125.417 239.387 97.2581 211.227 97.2581 176.491H91.6247C91.6247 214.339 122.306 245.02 160.154 245.02V239.387ZM201.429 176.491C201.429 199.287 182.949 217.767 160.153 217.767V223.4C186.06 223.4 207.063 202.398 207.063 176.491H201.429ZM160.153 135.214C182.949 135.214 201.429 153.694 201.429 176.491H207.063C207.063 150.583 186.06 129.581 160.153 129.581V135.214ZM118.877 176.491C118.877 153.694 137.357 135.214 160.153 135.214V129.581C134.245 129.581 113.243 150.583 113.243 176.491H118.877ZM160.153 217.767C137.357 217.767 118.877 199.287 118.877 176.491H113.243C113.243 202.398 134.245 223.4 160.153 223.4V217.767Z" fill="#0C6478" mask="url(#path-10-outside-2_739_19026)"/>
<path d="M224.088 190.602C220.516 218.101 193.729 242.386 159.804 242.386C125.879 242.386 99.9843 216.494 96.2344 190.602C108.734 211.315 125.879 227.387 159.804 227.387C193.729 227.387 210.874 209.529 224.088 190.602Z" fill="#BDD5DB"/>
<path d="M144.1 185.391C140.093 187.927 128.894 194.314 112.408 186.499L107.285 183.829L118.751 170.124C121.837 172.391 125.229 172.654 128.604 171.899C132.28 171.077 136.041 169.028 139.544 167.058C139.8 166.914 140.055 166.77 140.307 166.628C143.607 164.767 146.66 163.046 149.46 162.228C152.392 161.371 154.756 161.582 156.742 163.516C157.038 163.803 157.427 164.633 157.447 166.171C157.466 167.642 157.14 169.545 156.3 171.684C154.624 175.947 150.934 181.066 144.1 185.391Z" fill="white" stroke="#0C6478" stroke-width="2.62895"/>
<path d="M176.498 184.324C180.504 186.86 191.703 193.247 208.19 185.432L213.313 182.762L201.847 169.057C198.761 171.324 195.369 171.587 191.993 170.832C188.318 170.01 184.557 167.961 181.053 165.991C180.798 165.847 180.543 165.703 180.29 165.561C176.991 163.7 173.938 161.979 171.138 161.161C168.206 160.304 165.842 160.515 163.855 162.449C163.56 162.736 163.171 163.566 163.151 165.104C163.131 166.575 163.458 168.478 164.298 170.617C165.974 174.88 169.664 179.999 176.498 184.324Z" fill="white" stroke="#0C6478" stroke-width="2.62895"/>
<circle cx="133.183" cy="116.502" r="6.24981" fill="#0C6478"/>
<circle cx="184.254" cy="116.502" r="6.24981" fill="#0C6478"/>
<path d="M149.61 124.607C153.419 127.47 162.81 131.373 169.898 124.078" stroke="#0C6478" stroke-width="3.00451" stroke-linecap="round"/>
<rect x="72.832" y="92.709" width="22.1422" height="5.71411" transform="rotate(-32.0595 72.832 92.709)" fill="#FF7070"/>
<rect x="60.0977" y="152.055" width="22.1422" height="5.71411" transform="rotate(52.901 60.0977 152.055)" fill="#9C6DFF"/>
<rect x="165.691" y="84.5669" width="15.5361" height="5.71411" transform="rotate(-78.338 165.691 84.5669)" fill="#6DB0FF"/>
<ellipse cx="73.4658" cy="121.759" rx="5.44626" ry="5.2677" fill="#37DAFF"/>
<ellipse cx="214.797" cy="81.6727" rx="4.28558" ry="4.10702" fill="#37DAFF"/>
<ellipse cx="260.692" cy="176.67" rx="4.28558" ry="4.10702" fill="#FF7070"/>
<path d="M131.029 62.7333L124.225 73.7984L118.044 62.3728L131.029 62.7333Z" fill="#C985FF"/>
<path d="M252.104 126.378L239.16 125.295L246.57 114.626L252.104 126.378Z" fill="#FFB45C"/>
</g>
<g opacity="0.3" filter="url(#filter0_f_739_19026)">
<ellipse cx="160" cy="279.801" rx="104.601" ry="6.18099" fill="#D9F8FF"/>
</g>
<defs>
<filter id="filter0_f_739_19026" x="48.9829" y="267.205" width="222.034" height="25.1929" filterUnits="userSpaceOnUse" color-interpolation-filters="sRGB">
<feFlood flood-opacity="0" result="BackgroundImageFix"/>
<feBlend mode="normal" in="SourceGraphic" in2="BackgroundImageFix" result="shape"/>
<feGaussianBlur stdDeviation="3.20778" result="effect1_foregroundBlur_739_19026"/>
</filter>
</defs>
</svg>
