<svg width="1440" height="211" viewBox="0 0 1440 211" fill="none" xmlns="http://www.w3.org/2000/svg">
<g clip-path="url(#clip0_30_1141)">
<path d="M1440 179H0V211H1440V179Z" fill="#46230A"/>
<g clip-path="url(#clip1_30_1141)">
<path d="M484 179C484 190.309 492.732 197.498 504.912 193.577C508.107 204.523 524.754 204.995 527.132 193.831C535.337 194.321 540.91 191.671 541.618 184.646C551.711 184.646 554.979 184.464 557.193 179H484Z" fill="white"/>
</g>
<path d="M821.307 159.665C821.883 159.665 822.344 160.126 822.344 160.703V166.582C822.344 168.945 820.5 170.886 818.175 171.059V159.665H821.307Z" fill="#08465D"/>
<path d="M794.542 159.665H821.229V157.917H794.542V159.665Z" fill="#F77600"/>
<path d="M794.542 129.73C794.542 128.5 795.541 127.501 796.771 127.501H810.47C813.679 127.501 816.772 129.922 818.059 133.63L822.344 148.751V156.879C822.344 157.455 821.883 157.916 821.307 157.916H794.542V129.73Z" fill="#FAA316"/>
<path d="M822.133 148.002C822.133 148.002 820.077 147.368 819.712 146.062C819.193 144.217 816.734 134.86 816.772 134.284C816.81 133.611 818.059 133.611 818.059 133.611L822.133 147.983V148.002Z" fill="#08465D"/>
<path d="M724.527 163.373H794.657V157.916H724.527V163.373Z" fill="#22242E"/>
<path d="M803.285 144.083C803.285 144.602 803.669 145.044 804.188 145.121L816.465 146.716C816.811 146.754 817.138 146.639 817.368 146.389C817.599 146.139 817.695 145.793 817.599 145.448L814.967 134.457C814.851 133.996 814.429 133.65 813.948 133.65H804.303C803.727 133.65 803.266 134.112 803.266 134.688V144.103L803.285 144.083Z" fill="#08465D"/>
<path d="M818.175 159.665V171.058C818.079 171.058 817.964 171.058 817.868 171.058H813.045C813.045 166.447 809.298 162.72 804.706 162.72C800.114 162.72 796.368 166.466 796.368 171.058H794.984C794.754 171.058 794.562 170.866 794.562 170.636V159.646H818.194L818.175 159.665Z" fill="#08465D"/>
<path d="M797 171.059C797 175.305 800.439 178.744 804.685 178.744C808.932 178.744 812.371 175.305 812.371 171.059C812.371 166.812 808.932 163.373 804.685 163.373C800.439 163.373 797 166.812 797 171.059Z" fill="#22242E"/>
<path d="M801.209 171.06C801.209 172.981 802.765 174.537 804.687 174.537C806.608 174.537 808.164 172.981 808.164 171.06C808.164 169.138 806.608 167.582 804.687 167.582C802.765 167.582 801.209 169.138 801.209 171.06Z" fill="white"/>
<path d="M751.676 171.059C751.676 175.305 755.115 178.744 759.361 178.744C763.607 178.744 767.047 175.305 767.047 171.059C767.047 166.812 763.607 163.373 759.361 163.373C755.115 163.373 751.676 166.812 751.676 171.059Z" fill="#22242E"/>
<path d="M755.903 171.06C755.903 172.981 757.46 174.537 759.381 174.537C761.302 174.537 762.859 172.981 762.859 171.06C762.859 169.138 761.302 167.582 759.381 167.582C757.46 167.582 755.903 169.138 755.903 171.06Z" fill="white"/>
<path d="M759.38 161.875C764.702 161.875 768.622 165.891 768.084 172.116L767.45 171.539C767.2 165.564 763.396 163.009 759.38 163.009C755.364 163.009 751.56 165.564 751.31 171.539L750.676 172.116C750.138 165.891 754.058 161.875 759.38 161.875Z" fill="#161010"/>
<path d="M734.307 171.059C734.307 175.305 737.746 178.744 741.992 178.744C746.238 178.744 749.678 175.305 749.678 171.059C749.678 166.812 746.238 163.373 741.992 163.373C737.746 163.373 734.307 166.812 734.307 171.059Z" fill="#22242E"/>
<path d="M738.534 171.06C738.534 172.981 740.09 174.537 742.012 174.537C743.933 174.537 745.49 172.981 745.49 171.06C745.49 169.138 743.933 167.582 742.012 167.582C740.09 167.582 738.534 169.138 738.534 171.06Z" fill="white"/>
<path d="M742.011 161.875C747.333 161.875 751.253 165.891 750.715 172.116L750.081 171.539C749.831 165.564 746.027 163.009 742.011 163.009C737.995 163.009 734.191 165.564 733.941 171.539L733.307 172.116C732.769 165.891 736.689 161.875 742.011 161.875Z" fill="#161010"/>
<path d="M804.053 149.809H807.031C807.211 149.809 807.357 149.662 807.357 149.482V148.944C807.357 148.764 807.211 148.617 807.031 148.617H804.053C803.872 148.617 803.726 148.764 803.726 148.944V149.482C803.726 149.662 803.872 149.809 804.053 149.809Z" fill="#22242E"/>
<path d="M773.542 171.039H790.527C790.93 171.039 791.257 170.712 791.257 170.309V164.084C791.257 163.68 790.93 163.354 790.527 163.354H773.542C773.139 163.354 772.812 163.68 772.812 164.084V170.309C772.812 170.712 773.139 171.039 773.542 171.039Z" fill="#006594"/>
<path d="M788.278 170.924H789.469V163.373H788.278V170.924Z" fill="#08465D"/>
<path d="M775.828 163.373H774.637V170.924H775.828V163.373Z" fill="#08465D"/>
<path d="M781.016 165.506C781.016 166.083 781.477 166.544 782.053 166.544C782.63 166.544 783.091 166.083 783.091 165.506C783.091 164.93 782.63 164.469 782.053 164.469C781.477 164.469 781.016 164.93 781.016 165.506Z" fill="#08465D"/>
<path d="M796.77 127.501H810.469C812.333 127.501 814.158 128.327 815.599 129.73H794.521C794.521 128.5 795.521 127.501 796.75 127.501H796.77Z" fill="#F77600"/>
<path d="M724.527 157.917H785.281V135.438H730.368L724.527 157.917Z" fill="#F77600"/>
<path d="M787.893 125.426H793.677L785.223 157.916H779.439L787.893 125.426Z" fill="#FAA316"/>
<path d="M730.368 135.437H786.549V130.537H731.579L730.368 135.437Z" fill="#FAA316"/>
<path d="M727.812 157.917H784.012V156.418H729.023L727.812 157.917Z" fill="#FAA316"/>
<path d="M771.505 157.917H765.722L771.563 135.438H777.346L771.505 157.917Z" fill="#FAA316"/>
<path d="M757.767 157.917H751.983L757.824 135.438H763.608L757.767 157.917Z" fill="#FAA316"/>
<path d="M744.028 157.917H738.245L744.086 135.438H749.869L744.028 157.917Z" fill="#FAA316"/>
<path d="M730.311 157.917H724.527L730.368 135.438H736.152L730.311 157.917Z" fill="#FAA316"/>
<path d="M804.284 123.927L788.625 122.486L787.895 125.426H805.072L804.284 123.927Z" fill="#FAA316"/>
<path d="M782.821 130.364C782.821 122.621 776.846 117.703 768.526 120.393C766.355 112.899 754.961 112.573 753.328 120.22C747.718 119.893 743.913 121.699 743.414 126.503C736.516 126.503 734.287 126.637 732.77 130.364H782.821Z" fill="#373A42"/>
<path d="M1000.78 159.665C1001.36 159.665 1001.82 160.126 1001.82 160.703V166.582C1001.82 168.945 999.972 170.886 997.647 171.059V159.665H1000.78Z" fill="#08465D"/>
<path d="M974.014 159.665H1000.7V157.917H974.014V159.665Z" fill="#F77600"/>
<path d="M974.015 129.73C974.015 128.5 975.014 127.501 976.243 127.501H989.943C993.151 127.501 996.245 129.922 997.532 133.63L1001.82 148.751V156.879C1001.82 157.455 1001.36 157.916 1000.78 157.916H974.015V129.73Z" fill="#FAA316"/>
<path d="M1001.61 148.002C1001.61 148.002 999.549 147.368 999.184 146.062C998.666 144.217 996.206 134.86 996.245 134.284C996.283 133.611 997.532 133.611 997.532 133.611L1001.61 147.983V148.002Z" fill="#08465D"/>
<path d="M904 163.373H974.13V157.916H904V163.373Z" fill="#22242E"/>
<path d="M982.757 144.083C982.757 144.602 983.142 145.044 983.66 145.121L995.938 146.716C996.284 146.754 996.611 146.639 996.841 146.389C997.072 146.139 997.168 145.793 997.072 145.448L994.439 134.457C994.324 133.996 993.901 133.65 993.421 133.65H983.776C983.199 133.65 982.738 134.112 982.738 134.688V144.103L982.757 144.083Z" fill="#08465D"/>
<path d="M997.648 159.665V171.058C997.552 171.058 997.436 171.058 997.34 171.058H992.518C992.518 166.447 988.771 162.72 984.179 162.72C979.587 162.72 975.84 166.466 975.84 171.058H974.457C974.226 171.058 974.034 170.866 974.034 170.636V159.646H997.667L997.648 159.665Z" fill="#08465D"/>
<path d="M976.473 171.059C976.473 175.305 979.912 178.744 984.158 178.744C988.404 178.744 991.844 175.305 991.844 171.059C991.844 166.812 988.404 163.373 984.158 163.373C979.912 163.373 976.473 166.812 976.473 171.059Z" fill="#22242E"/>
<path d="M980.682 171.06C980.682 172.981 982.238 174.537 984.159 174.537C986.081 174.537 987.637 172.981 987.637 171.06C987.637 169.138 986.081 167.582 984.159 167.582C982.238 167.582 980.682 169.138 980.682 171.06Z" fill="white"/>
<path d="M931.148 171.059C931.148 175.305 934.588 178.744 938.834 178.744C943.08 178.744 946.519 175.305 946.519 171.059C946.519 166.812 943.08 163.373 938.834 163.373C934.588 163.373 931.148 166.812 931.148 171.059Z" fill="#22242E"/>
<path d="M935.376 171.06C935.376 172.981 936.932 174.537 938.854 174.537C940.775 174.537 942.331 172.981 942.331 171.06C942.331 169.138 940.775 167.582 938.854 167.582C936.932 167.582 935.376 169.138 935.376 171.06Z" fill="white"/>
<path d="M938.853 161.875C944.175 161.875 948.095 165.891 947.557 172.116L946.922 171.539C946.673 165.564 942.868 163.009 938.853 163.009C934.837 163.009 931.033 165.564 930.783 171.539L930.149 172.116C929.611 165.891 933.531 161.875 938.853 161.875Z" fill="#161010"/>
<path d="M913.779 171.059C913.779 175.305 917.219 178.744 921.465 178.744C925.711 178.744 929.15 175.305 929.15 171.059C929.15 166.812 925.711 163.373 921.465 163.373C917.219 163.373 913.779 166.812 913.779 171.059Z" fill="#22242E"/>
<path d="M918.007 171.06C918.007 172.981 919.563 174.537 921.485 174.537C923.406 174.537 924.962 172.981 924.962 171.06C924.962 169.138 923.406 167.582 921.485 167.582C919.563 167.582 918.007 169.138 918.007 171.06Z" fill="white"/>
<path d="M921.484 161.875C926.806 161.875 930.725 165.891 930.187 172.116L929.553 171.539C929.304 165.564 925.499 163.009 921.484 163.009C917.468 163.009 913.664 165.564 913.414 171.539L912.78 172.116C912.242 165.891 916.161 161.875 921.484 161.875Z" fill="#161010"/>
<path d="M983.525 149.809H986.503C986.684 149.809 986.83 149.662 986.83 149.482V148.944C986.83 148.764 986.684 148.617 986.503 148.617H983.525C983.345 148.617 983.199 148.764 983.199 148.944V149.482C983.199 149.662 983.345 149.809 983.525 149.809Z" fill="#22242E"/>
<path d="M953.015 171.039H969.999C970.403 171.039 970.729 170.712 970.729 170.309V164.084C970.729 163.68 970.403 163.354 969.999 163.354H953.015C952.611 163.354 952.284 163.68 952.284 164.084V170.309C952.284 170.712 952.611 171.039 953.015 171.039Z" fill="#006594"/>
<path d="M967.75 170.924H968.941V163.373H967.75V170.924Z" fill="#08465D"/>
<path d="M955.301 163.373H954.109V170.924H955.301V163.373Z" fill="#08465D"/>
<path d="M960.488 165.506C960.488 166.083 960.949 166.544 961.526 166.544C962.102 166.544 962.563 166.083 962.563 165.506C962.563 164.93 962.102 164.469 961.526 164.469C960.949 164.469 960.488 164.93 960.488 165.506Z" fill="#08465D"/>
<path d="M976.242 127.501H989.942C991.805 127.501 993.63 128.327 995.072 129.73H973.994C973.994 128.5 974.993 127.501 976.223 127.501H976.242Z" fill="#F77600"/>
<path d="M904 157.917H964.754V135.438H909.841L904 157.917Z" fill="#F77600"/>
<path d="M967.366 125.426H973.149L964.695 157.916H958.912L967.366 125.426Z" fill="#FAA316"/>
<path d="M909.841 135.437H966.022V130.537H911.051L909.841 135.437Z" fill="#FAA316"/>
<path d="M907.285 157.917H963.485V156.418H908.496L907.285 157.917Z" fill="#FAA316"/>
<path d="M950.978 157.917H945.194L951.035 135.438H956.819L950.978 157.917Z" fill="#FAA316"/>
<path d="M937.239 157.917H931.456L937.297 135.438H943.08L937.239 157.917Z" fill="#FAA316"/>
<path d="M923.501 157.917H917.718L923.559 135.438H929.342L923.501 157.917Z" fill="#FAA316"/>
<path d="M909.783 157.917H904L909.841 135.438H915.624L909.783 157.917Z" fill="#FAA316"/>
<path d="M983.756 123.927L968.097 122.486L967.367 125.426H984.544L983.756 123.927Z" fill="#FAA316"/>
<path d="M962.294 130.364C962.294 122.621 956.318 117.703 947.999 120.393C945.828 112.899 934.434 112.573 932.801 120.22C927.19 119.893 923.386 121.699 922.887 126.503C915.989 126.503 913.76 126.637 912.242 130.364H962.294Z" fill="#373A42"/>
<path d="M1179.78 159.665C1180.36 159.665 1180.82 160.126 1180.82 160.703V166.582C1180.82 168.945 1178.97 170.886 1176.65 171.059V159.665H1179.78Z" fill="#08465D"/>
<path d="M1153.01 159.665H1179.7V157.917H1153.01V159.665Z" fill="#F77600"/>
<path d="M1153.01 129.73C1153.01 128.5 1154.01 127.501 1155.24 127.501H1168.94C1172.15 127.501 1175.24 129.922 1176.53 133.63L1180.82 148.751V156.879C1180.82 157.455 1180.36 157.916 1179.78 157.916H1153.01V129.73Z" fill="#FAA316"/>
<path d="M1180.61 148.002C1180.61 148.002 1178.55 147.368 1178.18 146.062C1177.67 144.217 1175.21 134.86 1175.24 134.284C1175.28 133.611 1176.53 133.611 1176.53 133.611L1180.61 147.983V148.002Z" fill="#08465D"/>
<path d="M1083 163.373H1153.13V157.916H1083V163.373Z" fill="#22242E"/>
<path d="M1161.76 144.083C1161.76 144.602 1162.14 145.044 1162.66 145.121L1174.94 146.716C1175.28 146.754 1175.61 146.639 1175.84 146.389C1176.07 146.139 1176.17 145.793 1176.07 145.448L1173.44 134.457C1173.32 133.996 1172.9 133.65 1172.42 133.65H1162.78C1162.2 133.65 1161.74 134.112 1161.74 134.688V144.103L1161.76 144.083Z" fill="#08465D"/>
<path d="M1176.65 159.665V171.058C1176.55 171.058 1176.44 171.058 1176.34 171.058H1171.52C1171.52 166.447 1167.77 162.72 1163.18 162.72C1158.59 162.72 1154.84 166.466 1154.84 171.058H1153.46C1153.23 171.058 1153.03 170.866 1153.03 170.636V159.646H1176.67L1176.65 159.665Z" fill="#08465D"/>
<path d="M1155.47 171.059C1155.47 175.305 1158.91 178.744 1163.16 178.744C1167.4 178.744 1170.84 175.305 1170.84 171.059C1170.84 166.812 1167.4 163.373 1163.16 163.373C1158.91 163.373 1155.47 166.812 1155.47 171.059Z" fill="#22242E"/>
<path d="M1159.68 171.06C1159.68 172.981 1161.24 174.537 1163.16 174.537C1165.08 174.537 1166.64 172.981 1166.64 171.06C1166.64 169.138 1165.08 167.582 1163.16 167.582C1161.24 167.582 1159.68 169.138 1159.68 171.06Z" fill="white"/>
<path d="M1110.15 171.059C1110.15 175.305 1113.59 178.744 1117.83 178.744C1122.08 178.744 1125.52 175.305 1125.52 171.059C1125.52 166.812 1122.08 163.373 1117.83 163.373C1113.59 163.373 1110.15 166.812 1110.15 171.059Z" fill="#22242E"/>
<path d="M1114.38 171.06C1114.38 172.981 1115.93 174.537 1117.85 174.537C1119.78 174.537 1121.33 172.981 1121.33 171.06C1121.33 169.138 1119.78 167.582 1117.85 167.582C1115.93 167.582 1114.38 169.138 1114.38 171.06Z" fill="white"/>
<path d="M1117.85 161.875C1123.17 161.875 1127.09 165.891 1126.56 172.116L1125.92 171.539C1125.67 165.564 1121.87 163.009 1117.85 163.009C1113.84 163.009 1110.03 165.564 1109.78 171.539L1109.15 172.116C1108.61 165.891 1112.53 161.875 1117.85 161.875Z" fill="#161010"/>
<path d="M1092.78 171.059C1092.78 175.305 1096.22 178.744 1100.46 178.744C1104.71 178.744 1108.15 175.305 1108.15 171.059C1108.15 166.812 1104.71 163.373 1100.46 163.373C1096.22 163.373 1092.78 166.812 1092.78 171.059Z" fill="#22242E"/>
<path d="M1097.01 171.06C1097.01 172.981 1098.56 174.537 1100.48 174.537C1102.41 174.537 1103.96 172.981 1103.96 171.06C1103.96 169.138 1102.41 167.582 1100.48 167.582C1098.56 167.582 1097.01 169.138 1097.01 171.06Z" fill="white"/>
<path d="M1100.48 161.875C1105.81 161.875 1109.73 165.891 1109.19 172.116L1108.55 171.539C1108.3 165.564 1104.5 163.009 1100.48 163.009C1096.47 163.009 1092.66 165.564 1092.41 171.539L1091.78 172.116C1091.24 165.891 1095.16 161.875 1100.48 161.875Z" fill="#161010"/>
<path d="M1162.53 149.809H1165.5C1165.68 149.809 1165.83 149.662 1165.83 149.482V148.944C1165.83 148.764 1165.68 148.617 1165.5 148.617H1162.53C1162.34 148.617 1162.2 148.764 1162.2 148.944V149.482C1162.2 149.662 1162.34 149.809 1162.53 149.809Z" fill="#22242E"/>
<path d="M1132.01 171.039H1149C1149.4 171.039 1149.73 170.712 1149.73 170.309V164.084C1149.73 163.68 1149.4 163.354 1149 163.354H1132.01C1131.61 163.354 1131.28 163.68 1131.28 164.084V170.309C1131.28 170.712 1131.61 171.039 1132.01 171.039Z" fill="#006594"/>
<path d="M1146.75 170.924H1147.94V163.373H1146.75V170.924Z" fill="#08465D"/>
<path d="M1134.3 163.373H1133.11V170.924H1134.3V163.373Z" fill="#08465D"/>
<path d="M1139.49 165.506C1139.49 166.083 1139.95 166.544 1140.53 166.544C1141.1 166.544 1141.56 166.083 1141.56 165.506C1141.56 164.93 1141.1 164.469 1140.53 164.469C1139.95 164.469 1139.49 164.93 1139.49 165.506Z" fill="#08465D"/>
<path d="M1155.24 127.501H1168.94C1170.81 127.501 1172.63 128.327 1174.07 129.73H1152.99C1152.99 128.5 1153.99 127.501 1155.22 127.501H1155.24Z" fill="#F77600"/>
<path d="M1083 157.917H1143.75V135.438H1088.84L1083 157.917Z" fill="#F77600"/>
<path d="M1146.37 125.426H1152.15L1143.7 157.916H1137.91L1146.37 125.426Z" fill="#FAA316"/>
<path d="M1088.84 135.437H1145.02V130.537H1090.05L1088.84 135.437Z" fill="#FAA316"/>
<path d="M1086.29 157.917H1142.49V156.418H1087.5L1086.29 157.917Z" fill="#FAA316"/>
<path d="M1129.98 157.917H1124.19L1130.04 135.438H1135.82L1129.98 157.917Z" fill="#FAA316"/>
<path d="M1116.24 157.917H1110.46L1116.3 135.438H1122.08L1116.24 157.917Z" fill="#FAA316"/>
<path d="M1102.5 157.917H1096.72L1102.56 135.438H1108.34L1102.5 157.917Z" fill="#FAA316"/>
<path d="M1088.78 157.917H1083L1088.84 135.438H1094.62L1088.78 157.917Z" fill="#FAA316"/>
<path d="M1162.76 123.927L1147.1 122.486L1146.37 125.426H1163.54L1162.76 123.927Z" fill="#FAA316"/>
<path d="M1141.29 130.364C1141.29 122.621 1135.32 117.703 1127 120.393C1124.83 112.899 1113.43 112.573 1111.8 120.22C1106.19 119.893 1102.39 121.699 1101.89 126.503C1094.99 126.503 1092.76 126.637 1091.24 130.364H1141.29Z" fill="#373A42"/>
<path d="M1358.78 159.665C1359.36 159.665 1359.82 160.126 1359.82 160.703V166.582C1359.82 168.945 1357.97 170.886 1355.65 171.059V159.665H1358.78Z" fill="#08465D"/>
<path d="M1332.02 159.665H1358.7V157.917H1332.02V159.665Z" fill="#F77600"/>
<path d="M1332.02 129.73C1332.02 128.5 1333.01 127.501 1334.24 127.501H1347.94C1351.15 127.501 1354.25 129.922 1355.53 133.63L1359.82 148.751V156.879C1359.82 157.455 1359.36 157.916 1358.78 157.916H1332.02V129.73Z" fill="#FAA316"/>
<path d="M1359.61 148.002C1359.61 148.002 1357.55 147.368 1357.18 146.062C1356.67 144.217 1354.21 134.86 1354.24 134.284C1354.28 133.611 1355.53 133.611 1355.53 133.611L1359.61 147.983V148.002Z" fill="#08465D"/>
<path d="M1262 163.373H1332.13V157.916H1262V163.373Z" fill="#22242E"/>
<path d="M1340.76 144.083C1340.76 144.602 1341.14 145.044 1341.66 145.121L1353.94 146.716C1354.28 146.754 1354.61 146.639 1354.84 146.389C1355.07 146.139 1355.17 145.793 1355.07 145.448L1352.44 134.457C1352.32 133.996 1351.9 133.65 1351.42 133.65H1341.78C1341.2 133.65 1340.74 134.112 1340.74 134.688V144.103L1340.76 144.083Z" fill="#08465D"/>
<path d="M1355.65 159.665V171.058C1355.55 171.058 1355.44 171.058 1355.34 171.058H1350.52C1350.52 166.447 1346.77 162.72 1342.18 162.72C1337.59 162.72 1333.84 166.466 1333.84 171.058H1332.46C1332.23 171.058 1332.04 170.866 1332.04 170.636V159.646H1355.67L1355.65 159.665Z" fill="#08465D"/>
<path d="M1334.47 171.059C1334.47 175.305 1337.91 178.744 1342.16 178.744C1346.4 178.744 1349.84 175.305 1349.84 171.059C1349.84 166.812 1346.4 163.373 1342.16 163.373C1337.91 163.373 1334.47 166.812 1334.47 171.059Z" fill="#22242E"/>
<path d="M1338.68 171.06C1338.68 172.981 1340.24 174.537 1342.16 174.537C1344.08 174.537 1345.64 172.981 1345.64 171.06C1345.64 169.138 1344.08 167.582 1342.16 167.582C1340.24 167.582 1338.68 169.138 1338.68 171.06Z" fill="white"/>
<path d="M1289.15 171.059C1289.15 175.305 1292.59 178.744 1296.83 178.744C1301.08 178.744 1304.52 175.305 1304.52 171.059C1304.52 166.812 1301.08 163.373 1296.83 163.373C1292.59 163.373 1289.15 166.812 1289.15 171.059Z" fill="#22242E"/>
<path d="M1293.38 171.06C1293.38 172.981 1294.93 174.537 1296.85 174.537C1298.77 174.537 1300.33 172.981 1300.33 171.06C1300.33 169.138 1298.77 167.582 1296.85 167.582C1294.93 167.582 1293.38 169.138 1293.38 171.06Z" fill="white"/>
<path d="M1296.85 161.875C1302.17 161.875 1306.09 165.891 1305.56 172.116L1304.92 171.539C1304.67 165.564 1300.87 163.009 1296.85 163.009C1292.84 163.009 1289.03 165.564 1288.78 171.539L1288.15 172.116C1287.61 165.891 1291.53 161.875 1296.85 161.875Z" fill="#161010"/>
<path d="M1271.78 171.059C1271.78 175.305 1275.22 178.744 1279.46 178.744C1283.71 178.744 1287.15 175.305 1287.15 171.059C1287.15 166.812 1283.71 163.373 1279.46 163.373C1275.22 163.373 1271.78 166.812 1271.78 171.059Z" fill="#22242E"/>
<path d="M1276.01 171.06C1276.01 172.981 1277.56 174.537 1279.49 174.537C1281.41 174.537 1282.96 172.981 1282.96 171.06C1282.96 169.138 1281.41 167.582 1279.49 167.582C1277.56 167.582 1276.01 169.138 1276.01 171.06Z" fill="white"/>
<path d="M1279.48 161.875C1284.81 161.875 1288.73 165.891 1288.19 172.116L1287.55 171.539C1287.3 165.564 1283.5 163.009 1279.48 163.009C1275.47 163.009 1271.66 165.564 1271.41 171.539L1270.78 172.116C1270.24 165.891 1274.16 161.875 1279.48 161.875Z" fill="#161010"/>
<path d="M1341.53 149.809H1344.5C1344.68 149.809 1344.83 149.662 1344.83 149.482V148.944C1344.83 148.764 1344.68 148.617 1344.5 148.617H1341.53C1341.34 148.617 1341.2 148.764 1341.2 148.944V149.482C1341.2 149.662 1341.34 149.809 1341.53 149.809Z" fill="#22242E"/>
<path d="M1311.02 171.039H1328C1328.4 171.039 1328.73 170.712 1328.73 170.309V164.084C1328.73 163.68 1328.4 163.354 1328 163.354H1311.02C1310.61 163.354 1310.29 163.68 1310.29 164.084V170.309C1310.29 170.712 1310.61 171.039 1311.02 171.039Z" fill="#006594"/>
<path d="M1325.75 170.924H1326.94V163.373H1325.75V170.924Z" fill="#08465D"/>
<path d="M1313.3 163.373H1312.11V170.924H1313.3V163.373Z" fill="#08465D"/>
<path d="M1318.49 165.506C1318.49 166.083 1318.95 166.544 1319.53 166.544C1320.1 166.544 1320.56 166.083 1320.56 165.506C1320.56 164.93 1320.1 164.469 1319.53 164.469C1318.95 164.469 1318.49 164.93 1318.49 165.506Z" fill="#08465D"/>
<path d="M1334.24 127.501H1347.94C1349.81 127.501 1351.63 128.327 1353.07 129.73H1331.99C1331.99 128.5 1332.99 127.501 1334.22 127.501H1334.24Z" fill="#F77600"/>
<path d="M1262 157.917H1322.75V135.438H1267.84L1262 157.917Z" fill="#F77600"/>
<path d="M1325.37 125.426H1331.15L1322.7 157.916H1316.91L1325.37 125.426Z" fill="#FAA316"/>
<path d="M1267.84 135.437H1324.02V130.537H1269.05L1267.84 135.437Z" fill="#FAA316"/>
<path d="M1265.29 157.917H1321.49V156.418H1266.5L1265.29 157.917Z" fill="#FAA316"/>
<path d="M1308.98 157.917H1303.2L1309.04 135.438H1314.82L1308.98 157.917Z" fill="#FAA316"/>
<path d="M1295.24 157.917H1289.46L1295.3 135.438H1301.08L1295.24 157.917Z" fill="#FAA316"/>
<path d="M1281.5 157.917H1275.72L1281.56 135.438H1287.34L1281.5 157.917Z" fill="#FAA316"/>
<path d="M1267.78 157.917H1262L1267.84 135.438H1273.62L1267.78 157.917Z" fill="#FAA316"/>
<path d="M1341.76 123.927L1326.1 122.486L1325.37 125.426H1342.54L1341.76 123.927Z" fill="#FAA316"/>
<path d="M1320.29 130.364C1320.29 122.621 1314.32 117.703 1306 120.393C1303.83 112.899 1292.43 112.573 1290.8 120.22C1285.19 119.893 1281.39 121.699 1280.89 126.503C1273.99 126.503 1271.76 126.637 1270.24 130.364H1320.29Z" fill="#373A42"/>
<path d="M637.105 153.268H607.478V158.129H637.105V153.268Z" fill="#22242E"/>
<path d="M600.258 78.6316L602.71 74.5684L575.468 58.1286L573.016 62.1919L600.258 78.6316Z" fill="#665959"/>
<path d="M573.447 61.3175L574.896 58.916L558.3 48.8964L556.85 51.2979L573.447 61.3175Z" fill="#006594"/>
<path d="M612.242 137.954V109.287C612.242 101.64 607.765 92.9174 600.253 87.7297C592.74 82.5613 565.707 71.5326 561.365 69.1886C556.657 66.6524 555.447 65.1153 554.697 62.8673C554.006 60.7346 555.735 58.256 557.675 58.9093C559.597 59.5625 602.021 73.8191 608.918 76.9509C615.931 80.1403 624.75 92.8406 624.75 105.176V137.935H612.242V137.954Z" fill="#F77600"/>
<path d="M528.991 127.905C528.991 127.905 555.275 68.7082 556.505 65.9222C557.735 63.117 558.926 50.1286 558.926 47.8614C558.926 45.5942 555.141 46.1514 553.661 47.016C552.182 47.8614 543.516 58.5442 542.652 60.5424C541.787 62.5598 525.129 123.352 525.129 125.062C525.129 126.772 528.28 127.925 529.01 127.925L528.991 127.905Z" fill="#FAA316"/>
<path d="M682.2 136.763C681.412 133.17 678.223 130.614 674.553 130.614H627.307V153.267H679.933C681.374 153.267 682.738 152.614 683.641 151.499C684.544 150.385 684.89 148.906 684.583 147.503L682.219 136.763H682.2Z" fill="#F77600"/>
<path d="M588.496 178.764C582.597 178.764 577.794 173.961 577.794 168.062C577.794 162.164 582.597 157.36 588.496 157.36C588.688 157.36 612.782 155.65 620.794 155.65C628.806 155.65 652.9 157.341 653.15 157.36C658.991 157.36 663.794 162.164 663.794 168.043C663.794 173.923 658.991 178.745 653.092 178.745H588.496V178.764Z" fill="#08465D"/>
<path d="M653.092 177.246C658.145 177.246 662.257 173.134 662.257 168.061C662.257 162.989 658.164 158.897 653.13 158.897H653.015C652.784 158.877 628.729 157.187 620.775 157.187C612.82 157.187 588.822 158.877 588.592 158.897H588.534H588.476C583.423 158.897 579.312 163.008 579.312 168.061C579.312 173.115 583.423 177.246 588.476 177.246H653.073H653.092Z" fill="#22242E"/>
<path d="M597.66 168.061C597.66 162.989 593.548 158.896 588.495 158.896C583.442 158.896 579.33 163.008 579.33 168.061C579.33 173.115 583.442 177.226 588.495 177.226C593.548 177.226 597.66 173.115 597.66 168.061Z" fill="#006594"/>
<path d="M588.496 173.326C585.595 173.326 583.231 170.963 583.231 168.061C583.231 165.16 585.595 162.797 588.496 162.797C591.397 162.797 593.761 165.16 593.761 168.061C593.761 170.963 591.397 173.326 588.496 173.326Z" fill="#22242E"/>
<path d="M637.913 160.8C637.913 159.32 636.721 158.129 635.242 158.129C633.763 158.129 632.571 159.32 632.571 160.8C632.571 162.279 633.763 163.47 635.242 163.47C636.721 163.47 637.913 162.279 637.913 160.8Z" fill="#006594"/>
<path d="M637.855 174.555C637.855 173.076 636.664 171.885 635.184 171.885C633.705 171.885 632.514 173.076 632.514 174.555C632.514 176.035 633.705 177.226 635.184 177.226C636.664 177.226 637.855 176.035 637.855 174.555Z" fill="#006594"/>
<path d="M609.015 174.555C609.015 173.076 607.824 171.885 606.344 171.885C604.865 171.885 603.674 173.076 603.674 174.555C603.674 176.035 604.865 177.226 606.344 177.226C607.824 177.226 609.015 176.035 609.015 174.555Z" fill="#006594"/>
<path d="M603.655 160.8C603.655 159.32 604.847 158.129 606.326 158.129C607.805 158.129 608.997 159.32 608.997 160.8C608.997 162.279 607.805 163.47 606.326 163.47C604.847 163.47 603.655 162.279 603.655 160.8Z" fill="#006594"/>
<path d="M643.906 168.061C643.906 162.989 648.018 158.896 653.071 158.896C658.124 158.896 662.236 163.008 662.236 168.061C662.236 173.115 658.124 177.226 653.071 177.226C648.018 177.226 643.906 173.115 643.906 168.061Z" fill="#006594"/>
<path d="M653.091 173.326C655.998 173.326 658.355 170.969 658.355 168.061C658.355 165.154 655.998 162.797 653.091 162.797C650.183 162.797 647.826 165.154 647.826 168.061C647.826 170.969 650.183 173.326 653.091 173.326Z" fill="#22242E"/>
<path d="M654.206 164.238H587.361V171.885H654.206V164.238Z" fill="#F77600"/>
<path d="M627.307 153.268H599.678C597.045 153.268 594.932 151.135 594.932 148.522V142.835C594.932 137.244 594.048 122.353 600.869 114.149C601.445 113.457 602.31 113.054 603.213 113.054H623.407C624.655 113.054 625.712 114.014 625.827 115.263L627.307 130.634V153.287V153.268Z" fill="#FAA316"/>
<path d="M599.927 150.578C598.601 150.578 597.545 149.502 597.545 148.195V142.623C597.545 142.104 597.545 141.528 597.545 140.855C597.468 134.938 597.314 122.641 602.848 115.993C602.982 115.839 603.193 115.743 603.405 115.743H623.176C623.176 115.743 623.291 115.801 623.31 115.858L624.425 127.463C624.617 129.442 623.522 131.345 621.696 132.152L618.372 133.631C616.489 134.476 615.067 136.071 614.453 138.031L611.532 147.311C610.917 149.252 609.13 150.578 607.094 150.578H599.966H599.927Z" fill="white"/>
<path d="M648.865 133.344H638.489C638.182 133.344 637.913 134.055 637.913 134.938H649.441C649.441 134.055 649.191 133.344 648.865 133.344Z" fill="#0A4873"/>
<path d="M648.865 136.668H638.489C638.182 136.668 637.913 137.379 637.913 138.263H649.441C649.441 137.379 649.191 136.668 648.865 136.668Z" fill="#0A4873"/>
<path d="M648.865 139.992H638.489C638.182 139.992 637.913 140.703 637.913 141.587H649.441C649.441 140.703 649.191 139.992 648.865 139.992Z" fill="#0A4873"/>
<path d="M662.047 133.344H651.671C651.364 133.344 651.095 134.055 651.095 134.938H662.623C662.623 134.055 662.373 133.344 662.047 133.344Z" fill="#0A4873"/>
<path d="M662.047 136.668H651.671C651.364 136.668 651.095 137.379 651.095 138.263H662.623C662.623 137.379 662.373 136.668 662.047 136.668Z" fill="#0A4873"/>
<path d="M662.047 139.992H651.671C651.364 139.992 651.095 140.703 651.095 141.587H662.623C662.623 140.703 662.373 139.992 662.047 139.992Z" fill="#0A4873"/>
<path d="M675.225 133.344H664.85C664.542 133.344 664.273 134.055 664.273 134.938H675.802C675.802 134.055 675.552 133.344 675.225 133.344Z" fill="#0A4873"/>
<path d="M675.225 136.668H664.85C664.542 136.668 664.273 137.379 664.273 138.263H675.802C675.802 137.379 675.552 136.668 675.225 136.668Z" fill="#0A4873"/>
<path d="M675.225 139.992H664.85C664.542 139.992 664.273 140.703 664.273 141.587H675.802C675.802 140.703 675.552 139.992 675.225 139.992Z" fill="#0A4873"/>
<path d="M635.223 124.773H667.925C668.905 124.773 669.712 125.58 669.712 126.56V130.614H633.437V126.56C633.437 125.58 634.243 124.773 635.223 124.773Z" fill="#F77600"/>
<path d="M638.43 124.773H637.104V128.482H638.43V124.773Z" fill="#22242E"/>
<path d="M642.371 124.773H641.045V128.482H642.371V124.773Z" fill="#22242E"/>
<path d="M646.309 124.773H644.983V128.482H646.309V124.773Z" fill="#22242E"/>
<path d="M650.248 124.773H648.922V128.482H650.248V124.773Z" fill="#22242E"/>
<path d="M654.168 124.773H652.842V128.482H654.168V124.773Z" fill="#22242E"/>
<path d="M658.106 124.773H656.78V128.482H658.106V124.773Z" fill="#22242E"/>
<path d="M662.044 124.773H660.719V128.482H662.044V124.773Z" fill="#22242E"/>
<path d="M665.984 124.773H664.658V128.482H665.984V124.773Z" fill="#22242E"/>
<path d="M533.448 126.638L529.509 123.91C528.068 122.911 526.089 123.679 525.685 125.37L524.667 133.19L530.527 150.021L533.448 126.638Z" fill="#F77600"/>
<path d="M550.316 135.649C550.316 135.649 554.947 135.822 555.715 135.591C557.08 135.188 560 128.636 561.076 128.002C562.171 127.368 562.555 127.349 562.555 127.349L558.213 138.396L554.428 137.858L550.336 135.63L550.316 135.649Z" fill="#22242E"/>
<path d="M555.141 144.064L529.855 130.327L532.93 124.678C532.93 124.678 541.441 131.537 544.631 133.285C547.82 135.015 558.215 138.435 558.215 138.435L555.141 144.084V144.064Z" fill="#08465D"/>
<path d="M542.497 137.186L530.642 130.73C530.642 130.73 528.337 142.182 527.876 144.641C527.395 147.216 529.509 149.445 530.527 150.002C531.545 150.559 534.389 152.096 534.389 152.096C534.389 152.096 537.233 153.633 538.251 154.19C539.269 154.748 542.286 155.324 544.188 153.499C545.994 151.769 554.352 143.623 554.352 143.623L542.497 137.167V137.186Z" fill="#22242E"/>
<path d="M43.3456 139.857H29.3965V179.745H43.3456V139.857Z" fill="#08465D"/>
<path d="M91.6102 139.857H77.6611V179.745H91.6102V139.857Z" fill="#08465D"/>
<path d="M139.894 139.857H125.945V179.745H139.894V139.857Z" fill="#08465D"/>
<path d="M188.159 139.857H174.21V179.745H188.159V139.857Z" fill="#08465D"/>
<path d="M188.159 139.857H174.21V179.745H188.159V139.857Z" fill="#08465D"/>
<path d="M95.3381 130.98H0V139.857H95.3381V130.98Z" fill="#006594"/>
<path d="M8.64613 135.42C8.64613 136.918 7.43567 138.148 5.91779 138.148C4.39991 138.148 3.18945 136.938 3.18945 135.42C3.18945 133.902 4.39991 132.691 5.91779 132.691C7.43567 132.691 8.64613 133.902 8.64613 135.42Z" fill="white"/>
<path d="M18.0221 135.42C18.0221 136.918 16.8116 138.148 15.2938 138.148C13.7759 138.148 12.5654 136.938 12.5654 135.42C12.5654 133.902 13.7759 132.691 15.2938 132.691C16.8116 132.691 18.0221 133.902 18.0221 135.42Z" fill="white"/>
<path d="M27.3795 135.42C27.3795 136.918 26.1691 138.148 24.6512 138.148C23.1333 138.148 21.9229 136.938 21.9229 135.42C21.9229 133.902 23.1333 132.691 24.6512 132.691C26.1691 132.691 27.3795 133.902 27.3795 135.42Z" fill="white"/>
<path d="M36.7369 135.42C36.7369 136.918 35.5265 138.148 34.0086 138.148C32.4907 138.148 31.2803 136.938 31.2803 135.42C31.2803 133.902 32.4907 132.691 34.0086 132.691C35.5265 132.691 36.7369 133.902 36.7369 135.42Z" fill="white"/>
<path d="M46.1129 135.42C46.1129 136.918 44.9025 138.148 43.3846 138.148C41.8667 138.148 40.6562 136.938 40.6562 135.42C40.6562 133.902 41.8667 132.691 43.3846 132.691C44.9025 132.691 46.1129 133.902 46.1129 135.42Z" fill="white"/>
<path d="M55.4889 135.42C55.4889 136.918 54.2784 138.148 52.7606 138.148C51.2427 138.148 50.0322 136.938 50.0322 135.42C50.0322 133.902 51.2427 132.691 52.7606 132.691C54.2784 132.691 55.4889 133.902 55.4889 135.42Z" fill="white"/>
<path d="M64.8463 135.42C64.8463 136.918 63.6359 138.148 62.118 138.148C60.6001 138.148 59.3896 136.938 59.3896 135.42C59.3896 133.902 60.6001 132.691 62.118 132.691C63.6359 132.691 64.8463 133.902 64.8463 135.42Z" fill="white"/>
<path d="M74.2037 135.42C74.2037 136.918 72.9933 138.148 71.4754 138.148C69.9575 138.148 68.7471 136.938 68.7471 135.42C68.7471 133.902 69.9575 132.691 71.4754 132.691C72.9933 132.691 74.2037 133.902 74.2037 135.42Z" fill="white"/>
<path d="M83.5797 135.42C83.5797 136.918 82.3693 138.148 80.8514 138.148C79.3335 138.148 78.123 136.938 78.123 135.42C78.123 133.902 79.3335 132.691 80.8514 132.691C82.3693 132.691 83.5797 133.902 83.5797 135.42Z" fill="white"/>
<path d="M92.9557 135.42C92.9557 136.918 91.7452 138.148 90.2274 138.148C88.7095 138.148 87.499 136.938 87.499 135.42C87.499 133.902 88.7095 132.691 90.2274 132.691C91.7452 132.691 92.9557 133.902 92.9557 135.42Z" fill="white"/>
<path d="M75.0479 99.7382C75.0479 99.7382 75.4705 100.718 77.1613 100.718C78.8522 100.718 79.2748 99.7382 79.2748 99.7382C78.5063 99.181 77.9107 98.5469 77.6225 97.6055H76.7002C76.412 98.5469 75.8356 99.181 75.0479 99.7382Z" fill="#EFB492"/>
<path d="M77.1621 100.718C78.8337 100.718 79.2756 99.7382 79.2756 99.7382C78.5071 99.181 77.9114 98.5469 77.6232 97.6055H77.1621V100.718Z" fill="#EFB492"/>
<path d="M62.3478 97.087L61.8675 95.8381C61.733 95.4923 61.2334 95.377 60.7531 95.5691C60.2727 95.7613 59.9845 96.184 60.119 96.5298L60.6378 97.8555L62.367 97.087H62.3478Z" fill="#EFB492"/>
<path d="M92.3789 106.521L93.7046 106.349C94.0697 106.291 94.4155 106.675 94.4924 107.194C94.5693 107.713 94.3195 108.174 93.9736 108.212L92.571 108.404L92.3981 106.521H92.3789Z" fill="#E4A380"/>
<path d="M71.6091 128.502L71.6859 129.962C71.6859 130.539 72.6082 131 73.7226 131C74.837 131 75.7592 130.539 75.7592 129.962L75.8168 128.502H71.5898H71.6091Z" fill="#22242E"/>
<path d="M82.6951 128.502L82.6375 129.962C82.6375 130.539 81.7152 131 80.6008 131C79.4864 131 78.5642 130.539 78.5642 129.962L78.4873 128.502H82.7143H82.6951Z" fill="#22242E"/>
<path d="M82.5608 93.379C82.5608 96.1073 80.1398 98.3361 77.1617 98.3361C74.1836 98.3361 71.7627 96.1266 71.7627 93.379C71.7627 90.6314 74.1836 88.4219 77.1617 88.4219C80.1398 88.4219 82.5608 90.6314 82.5608 93.379Z" fill="#EFB492"/>
<path d="M79.2747 99.7395C79.2747 99.7395 78.8328 100.719 77.1612 100.719C75.4896 100.719 75.0477 99.7395 75.0477 99.7395C68.9762 102.084 66.0557 102.045 62.6934 96.8574L60.3301 97.895C62.8471 103.621 66.7859 105.6 71.6085 105.311V115.648H82.6948V105.311C84.6546 108.001 87.748 109.615 92.7435 108.635L92.4937 106.291C86.3261 107.348 85.5576 101.834 79.2555 99.7395H79.2747Z" fill="#F77600"/>
<path d="M77.1605 106.521H71.627V128.502H75.854L76.2959 117.262C76.2959 117.262 76.4496 117.32 77.1797 117.32C77.9098 117.32 78.0635 117.262 78.0635 117.262L78.5054 128.502H82.7324V106.521H77.1989H77.1605Z" fill="#478DEC"/>
<path d="M77.1623 92.0157L71.9746 91.9004L72.5702 92.9379C72.7432 93.2261 73.0121 93.4375 73.3388 93.4759C74.1457 93.6104 75.7981 93.8602 77.1623 93.8602C78.5265 93.8602 80.1788 93.6104 80.9858 93.4759C81.3124 93.4183 81.5814 93.2261 81.7544 92.9379L82.35 91.9004L77.1623 92.0157Z" fill="#F77600"/>
<path d="M83.4824 92.1495C83.713 88.6719 81.1768 85.54 77.1611 85.54C73.1455 85.54 70.6093 88.6719 70.8398 92.1495C70.8398 92.1495 70.1289 92.4185 70.3595 92.8028C70.5708 93.1486 71.8966 92.3417 77.1611 92.3417C82.4257 92.3417 83.7514 93.1486 83.9628 92.8028C84.1933 92.4185 83.4824 92.1495 83.4824 92.1495Z" fill="#FAA316"/>
<path d="M73.9527 100.161C73.4916 100.334 73.0497 100.469 72.627 100.603V107.174H73.9527V100.161Z" fill="#478DEC"/>
<path d="M80.4281 100.199H80.3896V107.193H81.7154V100.872C81.3119 100.641 80.8892 100.411 80.4281 100.218V100.199Z" fill="#478DEC"/>
<path d="M272.929 117.49C271.68 117.49 270.546 118.24 270.066 119.392C269.951 119.661 269.855 119.93 269.759 120.199L264.071 138.837V149.654C264.071 150.422 264.686 151.037 265.455 151.037H301.058V120.603C301.058 118.893 299.674 117.509 297.964 117.509H272.948L272.929 117.49Z" fill="#FAA316"/>
<path d="M265.435 153.343C264.667 153.343 264.052 153.958 264.052 154.726V162.546C264.052 165.697 266.511 168.272 269.605 168.502V153.362H265.435V153.343Z" fill="#08465D"/>
<path d="M301.058 151.037H265.551V153.362H301.058V151.037Z" fill="#F77600"/>
<path d="M264.34 137.857C264.34 137.857 267.068 137.011 267.548 135.282C268.24 132.842 271.506 121.871 271.449 121.103C271.391 120.219 269.739 120.219 269.739 120.219L264.32 137.857H264.34Z" fill="#08465D"/>
<path d="M402.102 143.448H300.885V157.801H402.102V143.448Z" fill="#08465D"/>
<path d="M289.414 132.631C289.414 133.323 288.896 133.918 288.204 133.995L271.93 136.09C271.469 136.147 271.027 135.974 270.719 135.628C270.412 135.283 270.297 134.802 270.412 134.36L273.832 121.218C273.986 120.603 274.543 120.181 275.177 120.181H288.031C288.799 120.181 289.414 120.796 289.414 121.564V132.612V132.631Z" fill="#08465D"/>
<path d="M269.604 153.343V168.483C269.739 168.483 269.873 168.502 270.027 168.502H276.445C276.445 162.373 281.421 157.397 287.55 157.397C293.679 157.397 298.656 162.373 298.656 168.502H300.481C300.788 168.502 301.038 168.253 301.038 167.945V153.343H269.604Z" fill="#08465D"/>
<path d="M297.772 168.522C297.772 174.171 293.199 178.763 287.531 178.763C281.863 178.763 277.29 174.19 277.29 168.522C277.29 162.854 281.863 158.281 287.531 158.281C293.199 158.281 297.772 162.854 297.772 168.522Z" fill="#22242E"/>
<path d="M302.519 78.4297H311.434L353.223 143.449H344.327L302.519 78.4297Z" fill="#006594"/>
<path d="M292.162 168.521C292.162 171.077 290.087 173.133 287.551 173.133C285.015 173.133 282.939 171.058 282.939 168.521C282.939 165.985 285.015 163.91 287.551 163.91C290.087 163.91 292.162 165.985 292.162 168.521Z" fill="white"/>
<path d="M372.128 168.522C372.128 174.171 367.555 178.763 361.887 178.763C356.219 178.763 351.646 174.19 351.646 168.522C351.646 162.854 356.219 158.281 361.887 158.281C367.555 158.281 372.128 162.854 372.128 168.522Z" fill="#22242E"/>
<path d="M366.519 168.521C366.519 171.077 364.444 173.133 361.908 173.133C359.372 173.133 357.297 171.058 357.297 168.521C357.297 165.985 359.372 163.91 361.908 163.91C364.444 163.91 366.519 165.985 366.519 168.521Z" fill="white"/>
<path d="M361.888 156.283C354.817 156.283 349.591 161.625 350.321 169.925L351.166 169.156C351.493 161.221 356.546 157.82 361.907 157.82C367.267 157.82 372.301 161.221 372.647 169.156L373.493 169.925C374.204 161.625 368.997 156.283 361.926 156.283H361.888Z" fill="#161010"/>
<path d="M323.595 168.522C323.595 174.171 319.022 178.763 313.354 178.763C307.686 178.763 303.113 174.19 303.113 168.522C303.113 162.854 307.686 158.281 313.354 158.281C319.022 158.281 323.595 162.854 323.595 168.522Z" fill="#22242E"/>
<path d="M317.965 168.521C317.965 171.077 315.89 173.133 313.353 173.133C310.817 173.133 308.742 171.058 308.742 168.521C308.742 165.985 310.817 163.91 313.353 163.91C315.89 163.91 317.965 165.985 317.965 168.521Z" fill="white"/>
<path d="M313.354 156.283C306.284 156.283 301.058 161.625 301.788 169.925L302.633 169.156C302.96 161.221 308.013 157.82 313.374 157.82C318.734 157.82 323.768 161.221 324.114 169.156L324.959 169.925C325.67 161.625 320.463 156.283 313.393 156.283H313.354Z" fill="#161010"/>
<path d="M155.437 64.4037H150.249L150.23 63.8081L147.598 10.5287L148.789 10.4902L151.402 63.2125H154.246L154.649 11.8352H155.84L155.437 64.4037Z" fill="#08465D"/>
<path d="M395.243 168.522C395.243 174.171 390.671 178.763 385.003 178.763C379.335 178.763 374.762 174.19 374.762 168.522C374.762 162.854 379.335 158.281 385.003 158.281C390.671 158.281 395.243 162.854 395.243 168.522Z" fill="#22242E"/>
<path d="M389.613 168.521C389.613 171.077 387.538 173.133 385.002 173.133C382.466 173.133 380.391 171.058 380.391 168.521C380.391 165.985 382.466 163.91 385.002 163.91C387.538 163.91 389.613 165.985 389.613 168.521Z" fill="white"/>
<path d="M385.002 156.283C377.931 156.283 372.705 161.625 373.435 169.925L374.281 169.156C374.607 161.221 379.661 157.82 385.021 157.82C390.382 157.82 395.416 161.221 395.762 169.156L396.607 169.925C397.318 161.625 392.111 156.283 385.04 156.283H385.002Z" fill="#161010"/>
<path d="M284.399 138.664H288.376C288.607 138.664 288.799 138.856 288.799 139.087V139.817C288.799 140.047 288.607 140.24 288.376 140.24H284.399C284.169 140.24 283.977 140.047 283.977 139.817V139.087C283.977 138.856 284.169 138.664 284.399 138.664Z" fill="#22242E"/>
<path d="M348.728 157.801H326.306C325.722 157.801 325.249 158.274 325.249 158.858V169.098C325.249 169.682 325.722 170.155 326.306 170.155H348.728C349.312 170.155 349.785 169.682 349.785 169.098V158.858C349.785 158.274 349.312 157.801 348.728 157.801Z" fill="#006594"/>
<path d="M329.245 157.801H327.65V169.963H329.245V157.801Z" fill="#08465D"/>
<path d="M345.806 169.963H347.4V157.801H345.806V169.963Z" fill="#08465D"/>
<path d="M338.909 162.489C338.909 163.257 338.295 163.872 337.526 163.872C336.757 163.872 336.143 163.257 336.143 162.489C336.143 161.72 336.757 161.105 337.526 161.105C338.295 161.105 338.909 161.72 338.909 162.489Z" fill="#08465D"/>
<path d="M396.679 117.646L277.203 59.9668L271.038 72.7363L390.514 130.416L396.679 117.646Z" fill="#F77600"/>
<path d="M276.425 61.5672L155.236 3.06055L150.625 12.6117L271.814 71.1183L276.425 61.5672Z" fill="#006594"/>
<path d="M155.246 14.64C154.804 15.5623 153.69 15.9466 152.767 15.5046L148.214 13.2951C147.292 12.8532 146.907 11.7388 147.349 10.8165L152.057 1.05599C152.268 0.614072 152.652 0.268227 153.113 0.114517C153.574 -0.0391918 154.093 -0.0199781 154.535 0.191372L159.089 2.40094C160.011 2.84286 160.395 3.95725 159.953 4.8795L155.246 14.64Z" fill="#FAA316"/>
<path d="M402.102 117.49H365.097V140.297H402.102V117.49Z" fill="#FAA316"/>
<path d="M366.134 141.816H338.851V133.765C338.851 124.908 342.693 117.203 344.576 113.956C345.172 112.918 346.267 112.284 347.458 112.284H366.115V141.816H366.134Z" fill="#FAA316"/>
<path d="M361.888 141.814H343.327V143.448H361.888V141.814Z" fill="#22242E"/>
<path d="M344.499 114.052C342.597 117.357 338.869 124.927 338.831 133.65H351.089C352.415 133.65 353.702 133.131 354.663 132.209L358.717 128.27C359.082 127.905 359.582 127.713 360.081 127.713H362.06C362.387 127.713 362.656 127.444 362.656 127.117V114.667C362.656 114.34 362.387 114.071 362.06 114.071H344.499V114.052Z" fill="#08465D"/>
<path d="M151.518 71.2438C151.518 71.2438 150 73.0883 149.808 74.9713C149.673 76.3931 150.346 77.9686 151.921 78.4682C153.266 78.9101 155.092 78.5258 155.649 77.4498C156.283 76.2394 155.879 75.0289 155.802 74.5678C155.726 74.1259 155.745 73.8377 155.745 73.5302C155.745 73.2228 155.207 73.1268 155.168 73.5879C155.149 73.9722 155.053 75.3363 154.688 75.9512C154.246 76.6621 152.767 76.6044 152.498 75.7975C152.152 74.7983 153.228 73.0883 153.228 73.0883L151.499 71.2246L151.518 71.2438Z" fill="#22242E"/>
<path d="M155.476 60.2715H152.633H149.789L148.021 62.2505V66.5543L151.864 73.1062H152.633H153.401L157.244 66.5543V62.2505L155.476 60.2715Z" fill="#FAA316"/>
<path d="M200.302 92.2441H104.964V101.121H200.302V92.2441Z" fill="#006594"/>
<path d="M110.882 99.4118C112.388 99.4118 113.61 98.1902 113.61 96.6834C113.61 95.1766 112.388 93.9551 110.882 93.9551C109.375 93.9551 108.153 95.1766 108.153 96.6834C108.153 98.1902 109.375 99.4118 110.882 99.4118Z" fill="white"/>
<path d="M120.239 99.4118C121.746 99.4118 122.967 98.1902 122.967 96.6834C122.967 95.1766 121.746 93.9551 120.239 93.9551C118.732 93.9551 117.511 95.1766 117.511 96.6834C117.511 98.1902 118.732 99.4118 120.239 99.4118Z" fill="white"/>
<path d="M129.615 99.4118C131.122 99.4118 132.343 98.1902 132.343 96.6834C132.343 95.1766 131.122 93.9551 129.615 93.9551C128.108 93.9551 126.887 95.1766 126.887 96.6834C126.887 98.1902 128.108 99.4118 129.615 99.4118Z" fill="white"/>
<path d="M138.972 99.4118C140.479 99.4118 141.701 98.1902 141.701 96.6834C141.701 95.1766 140.479 93.9551 138.972 93.9551C137.466 93.9551 136.244 95.1766 136.244 96.6834C136.244 98.1902 137.466 99.4118 138.972 99.4118Z" fill="white"/>
<path d="M148.348 99.4118C149.855 99.4118 151.077 98.1902 151.077 96.6834C151.077 95.1766 149.855 93.9551 148.348 93.9551C146.842 93.9551 145.62 95.1766 145.62 96.6834C145.62 98.1902 146.842 99.4118 148.348 99.4118Z" fill="white"/>
<path d="M157.706 99.4118C159.213 99.4118 160.434 98.1902 160.434 96.6834C160.434 95.1766 159.213 93.9551 157.706 93.9551C156.199 93.9551 154.978 95.1766 154.978 96.6834C154.978 98.1902 156.199 99.4118 157.706 99.4118Z" fill="white"/>
<path d="M167.082 99.4118C168.589 99.4118 169.81 98.1902 169.81 96.6834C169.81 95.1766 168.589 93.9551 167.082 93.9551C165.575 93.9551 164.354 95.1766 164.354 96.6834C164.354 98.1902 165.575 99.4118 167.082 99.4118Z" fill="white"/>
<path d="M176.439 99.4118C177.946 99.4118 179.168 98.1902 179.168 96.6834C179.168 95.1766 177.946 93.9551 176.439 93.9551C174.932 93.9551 173.711 95.1766 173.711 96.6834C173.711 98.1902 174.932 99.4118 176.439 99.4118Z" fill="white"/>
<path d="M185.815 99.4118C187.322 99.4118 188.544 98.1902 188.544 96.6834C188.544 95.1766 187.322 93.9551 185.815 93.9551C184.308 93.9551 183.087 95.1766 183.087 96.6834C183.087 98.1902 184.308 99.4118 185.815 99.4118Z" fill="white"/>
<path d="M195.173 99.4118C196.679 99.4118 197.901 98.1902 197.901 96.6834C197.901 95.1766 196.679 93.9551 195.173 93.9551C193.666 93.9551 192.444 95.1766 192.444 96.6834C192.444 98.1902 193.666 99.4118 195.173 99.4118Z" fill="white"/>
<path d="M105.098 92.7044L104.81 91.7821L153.651 76.2383L153.804 76.2767L200.455 91.7821L200.148 92.7044L153.651 77.2374L105.098 92.7044Z" fill="#08465D"/>
<path d="M194.22 154.574L194.16 154.098L188.307 154.829L188.367 155.305L194.22 154.574Z" fill="#2C323D"/>
<path d="M192.49 153.619L193.596 153.481L194.29 159.029C194.311 159.2 194.178 159.372 194.006 159.393L193.549 159.451C193.377 159.472 193.206 159.339 193.184 159.167L192.49 153.619Z" fill="#71240F"/>
<path d="M212.235 176.342H210.198C209.218 176.342 208.373 177.245 208.238 178.436C208.238 178.513 208.238 178.59 208.315 178.647C208.373 178.705 208.45 178.744 208.526 178.744H213.08C214.022 178.744 214.175 178.282 214.079 177.879C214.079 177.879 213.906 176.764 213.733 176.342H212.235Z" fill="#1B2028"/>
<path d="M203.761 162.797C203.761 162.797 205.432 168.945 206.662 171.328C208.026 173.979 210.14 176.362 210.14 176.362H213.752C213.752 176.362 210.927 170.828 210.812 170.156C210.658 169.31 210.005 164.718 210.005 162.797H203.78H203.761Z" fill="#0A4873"/>
<path d="M194.634 144.677C195.595 147.136 198.381 148.347 200.86 147.367C203.338 146.387 204.568 143.62 203.607 141.161C202.646 138.702 199.86 137.491 197.382 138.471C194.903 139.451 193.674 142.218 194.634 144.677Z" fill="#EFB492"/>
<path d="M203.263 147.887C203.263 147.887 203.224 148.924 201.706 149.52C200.188 150.115 199.458 149.385 199.458 149.385C198.69 152.075 203.743 160.664 203.743 162.816C203.743 163.45 199.343 167.485 199.036 168.945C198.747 170.251 197.883 176.361 197.883 176.361H202.052C202.052 176.361 203.339 170.578 203.532 169.925C203.743 169.291 209.987 166.505 209.987 162.508C209.987 157.59 205.587 149.328 203.243 147.925L203.263 147.887Z" fill="#478DEC"/>
<path d="M199.478 149.385C199.766 148.443 200.285 147.848 200.208 146.887L200.63 146.733L201.726 149.539C200.227 150.134 199.478 149.404 199.478 149.404V149.385Z" fill="#EFB492"/>
<path d="M203.262 147.887C202.416 147.387 201.609 147.311 201.033 146.542L200.61 146.696L201.706 149.501C203.204 148.905 203.262 147.868 203.262 147.868V147.887Z" fill="#EFB492"/>
<path d="M192.791 140.355C192.003 141.7 194.789 147.983 195.058 148.578C195.058 148.578 196.499 148.309 198.209 147.022C200.016 145.677 199.881 144.87 199.881 144.87L197.172 137.953C197.172 137.953 193.483 139.202 192.81 140.355H192.791Z" fill="#665959"/>
<path d="M194.501 157.09L193.252 157.224C192.906 157.263 192.676 157.705 192.733 158.204C192.791 158.704 193.137 159.069 193.483 159.03L194.674 158.857L194.501 157.09Z" fill="#E4A380"/>
<path d="M201.244 151.23C201.301 149.097 204.26 148.847 204.452 151.172C204.894 156.802 200.014 159.338 194.692 159.127L194.48 156.84C198.707 156.533 201.397 156.341 201.263 151.23H201.244Z" fill="#FAA316"/>
<path d="M188.467 155.456C188.467 155.456 190.177 160.01 190.177 159.933C190.177 159.856 188.986 156.071 188.986 156.071L190.177 157.013L189.139 155.764H192.521L189.793 155.456L191.061 155.303L188.505 155.456H188.467Z" fill="#FAA316"/>
<path d="M188.371 154.573L189.428 151.211L189.044 153.555L189.985 152.921L189.389 153.689L191.33 153.382L189.505 154.074L191.657 154.151L188.371 154.573Z" fill="#FAA316"/>
<path d="M194.173 146.446C194.75 146.119 195.538 145.639 195.538 145.408C195.538 145.043 194.231 141.508 194.116 141.508C194.039 141.508 193.309 141.892 192.79 142.161C193.059 143.468 193.655 145.12 194.173 146.446Z" fill="#2C323D"/>
<path d="M198.669 141.719L202.992 140.028C202.723 139.682 202.415 139.355 202.07 139.105L198.246 140.604L198.688 141.719H198.669Z" fill="#2C323D"/>
<path d="M200.361 176.324H198.613H197.902C196.845 176.324 195.981 177.246 195.865 178.418C195.865 178.495 195.865 178.572 195.942 178.629C196 178.687 196.077 178.725 196.153 178.725H200.995C201.937 178.725 202.09 178.245 202.09 177.688V176.285H200.38L200.361 176.324Z" fill="#2C323D"/>
</g>
<defs>
<clipPath id="clip0_30_1141">
<rect width="1440" height="211" fill="white"/>
</clipPath>
<clipPath id="clip1_30_1141">
<rect width="73.2115" height="23" fill="white" transform="translate(484 179)"/>
</clipPath>
</defs>
</svg>
