<svg width="242" height="86" viewBox="0 0 242 86" fill="none" xmlns="http://www.w3.org/2000/svg">
<g clip-path="url(#clip0_30_1790)">
<path d="M29.3583 74.6663C28.5275 74.5828 27.6988 74.4972 26.8681 74.4156C26.3042 74.3586 25.9631 74.2648 26.4707 73.6003C28.0239 71.5703 29.5409 69.5096 31.0499 67.4429C31.3348 67.0516 31.6338 66.9028 32.1194 66.8783C43.1398 66.3158 52.0192 58.8457 54.4914 48.0085C55.6131 43.0882 55.1596 38.2679 53.2473 33.6024C52.9964 32.9889 52.9804 32.5017 53.2814 31.8923C54.5476 29.3323 55.6372 26.6908 56.5442 23.9453C61.8437 30.331 64.8536 41.9489 61.1855 52.9389C57.0619 65.2926 46.0856 73.8021 33.1849 74.6684C32.6632 74.8722 32.0893 74.5848 31.5716 74.8437H30.9696C30.4539 74.5848 29.878 74.8742 29.3563 74.6684L29.3583 74.6663Z" fill="#000080"/>
<path d="M29.3594 74.6661C29.8992 74.713 30.471 74.4297 30.9727 74.8414H29.3694C29.3714 74.7823 29.3694 74.7232 29.3594 74.6661Z" fill="#000080"/>
<path d="M10.3101 32.2263C12.086 30.981 13.882 29.7601 15.6277 28.474C16.1655 28.0786 16.633 27.9828 17.2732 28.1397C20.241 28.8694 23.2188 29.5502 26.2067 30.2513C26.1064 30.6549 25.7693 30.7119 25.5325 30.8668C17.7487 35.9746 9.48341 40.1102 0.814757 43.4386C0.0522363 43.7321 0.010097 43.4895 0.00207045 42.8312C-0.174513 27.7321 10.9643 14.235 25.701 11.6505C31.8554 10.5703 37.7789 11.2694 43.55 13.6623C44.5373 14.0719 44.4109 14.3573 43.8189 14.9932C42.4885 16.4179 41.1822 17.8671 39.91 19.3448C39.4043 19.9339 38.9388 20.046 38.1863 19.8136C27.519 16.5056 15.9749 21.2505 10.565 31.1339C10.4065 31.4233 10.276 31.727 10.1316 32.0246C10.1897 32.0918 10.2499 32.1591 10.3081 32.2243L10.3101 32.2263Z" fill="#000080"/>
<path d="M10.9492 66.868C28.3969 54.3615 42.0079 38.3513 52.9039 19.8545C54.1922 20.9918 54.2042 20.9979 53.5681 22.4593C49.5849 31.6211 44.3898 40.0614 38.6107 48.1511C32.7694 56.3284 26.2398 63.9126 19.2727 71.1197C18.735 71.6741 18.3858 71.7781 17.7116 71.3215C15.715 69.9722 13.6562 68.7187 11.6255 67.4204C11.3806 67.2634 11.0676 67.1819 10.9492 66.868Z" fill="#138808"/>
<path d="M14.127 55.9304C14.3537 52.1353 14.5664 48.5643 14.7771 44.9933C14.7992 44.6244 14.9477 44.3758 15.2828 44.1964C18.4131 42.5169 21.3508 40.5276 24.2424 38.4649C24.3146 38.414 24.411 38.3997 24.6116 38.3223C24.4089 41.457 24.2103 44.5123 24.0176 47.5656C23.9996 47.853 23.8952 48.0711 23.6745 48.2606C20.6325 50.8858 17.4961 53.3908 14.129 55.9304H14.127Z" fill="#FF9933"/>
<path d="M10.3485 46.7061C10.1619 49.7268 9.98734 52.5782 9.81076 55.4297C9.79872 55.6315 9.76862 55.8312 9.75858 56.033C9.62882 58.4191 8.51046 60.1869 6.40349 61.3365C6.02625 61.5444 5.84966 61.5219 5.60686 61.1754C3.55809 58.2302 1.99693 55.0465 1.02772 51.5754C0.817025 50.8213 0.943443 50.2628 1.84843 49.9591C4.67779 49.0093 7.49711 48.0188 10.3485 46.7041V46.7061Z" fill="#FF9933"/>
<path d="M91.9355 60.6523V62.5859C90.6465 63.2891 89.1582 63.6406 87.4707 63.6406C86.0996 63.6406 84.9365 63.3652 83.9814 62.8145C83.0264 62.2637 82.2705 61.5049 81.7139 60.5381C81.1572 59.5713 80.8789 58.5254 80.8789 57.4004C80.8789 55.6133 81.5146 54.1104 82.7861 52.8916C84.0635 51.6729 85.6367 51.0635 87.5059 51.0635C88.7949 51.0635 90.2275 51.4004 91.8037 52.0742V53.9639C90.3682 53.1436 88.9648 52.7334 87.5938 52.7334C86.1875 52.7334 85.0186 53.1787 84.0869 54.0693C83.1611 54.9541 82.6982 56.0645 82.6982 57.4004C82.6982 58.748 83.1553 59.8555 84.0693 60.7227C84.9834 61.5898 86.1523 62.0234 87.5762 62.0234C89.0645 62.0234 90.5176 61.5664 91.9355 60.6523ZM97.7451 55.3965C98.9756 55.3965 99.998 55.7949 100.812 56.5918C101.627 57.3828 102.034 58.3789 102.034 59.5801C102.034 60.7461 101.621 61.7158 100.795 62.4893C99.9688 63.2568 98.9287 63.6406 97.6748 63.6406C96.4619 63.6406 95.4482 63.251 94.6338 62.4717C93.8193 61.6865 93.4121 60.708 93.4121 59.5361C93.4121 58.3525 93.8223 57.3682 94.6426 56.583C95.4688 55.792 96.5029 55.3965 97.7451 55.3965ZM97.6572 56.8379C96.8896 56.8379 96.2598 57.0898 95.7676 57.5938C95.2754 58.0977 95.0293 58.7393 95.0293 59.5186C95.0293 60.292 95.2812 60.9248 95.7852 61.417C96.2891 61.9033 96.9365 62.1465 97.7275 62.1465C98.5127 62.1465 99.1543 61.9004 99.6523 61.4082C100.156 60.9102 100.408 60.2744 100.408 59.501C100.408 58.7334 100.147 58.0977 99.626 57.5938C99.1045 57.0898 98.4482 56.8379 97.6572 56.8379ZM105.409 55.4141V56.4424C106.124 55.6514 106.936 55.2559 107.844 55.2559C108.348 55.2559 108.816 55.3877 109.25 55.6514C109.684 55.9092 110.012 56.2666 110.234 56.7236C110.463 57.1748 110.577 57.8926 110.577 58.877V63.5H108.978V58.8945C108.978 58.0684 108.852 57.4795 108.6 57.1279C108.348 56.7705 107.926 56.5918 107.334 56.5918C106.578 56.5918 105.937 56.9697 105.409 57.7256V63.5H103.774V55.4141H105.409ZM112.414 62.9199V61.1973C112.865 61.5137 113.325 61.7715 113.794 61.9707C114.269 62.1641 114.667 62.2607 114.989 62.2607C115.323 62.2607 115.61 62.1787 115.851 62.0146C116.091 61.8506 116.211 61.6543 116.211 61.4258C116.211 61.1914 116.132 60.998 115.974 60.8457C115.821 60.6875 115.487 60.4619 114.972 60.1689C113.94 59.5947 113.264 59.1055 112.941 58.7012C112.625 58.291 112.467 57.8457 112.467 57.3652C112.467 56.7441 112.707 56.2373 113.188 55.8447C113.674 55.4521 114.298 55.2559 115.06 55.2559C115.851 55.2559 116.662 55.4785 117.494 55.9238V57.5059C116.545 56.9316 115.769 56.6445 115.165 56.6445C114.854 56.6445 114.603 56.7119 114.409 56.8467C114.222 56.9756 114.128 57.1484 114.128 57.3652C114.128 57.5527 114.213 57.7314 114.383 57.9014C114.559 58.0713 114.863 58.2764 115.297 58.5166L115.868 58.8418C117.216 59.6035 117.89 60.4473 117.89 61.373C117.89 62.0352 117.629 62.5801 117.107 63.0078C116.592 63.4297 115.927 63.6406 115.112 63.6406C114.632 63.6406 114.204 63.5908 113.829 63.4912C113.454 63.3857 112.982 63.1953 112.414 62.9199ZM118.602 56.6973L121.607 53.7441V55.4141H124.165V56.8555H121.607V60.8193C121.607 61.7451 121.991 62.208 122.759 62.208C123.333 62.208 123.939 62.0146 124.578 61.6279V63.1221C123.963 63.4678 123.292 63.6406 122.565 63.6406C121.833 63.6406 121.224 63.4268 120.737 62.999C120.585 62.8701 120.459 62.7266 120.359 62.5684C120.26 62.4043 120.175 62.1934 120.104 61.9355C120.04 61.6719 120.008 61.1738 120.008 60.4414V56.8555H118.602V56.6973ZM127.443 55.4141V57.2686L127.531 57.1279C128.305 55.8799 129.078 55.2559 129.852 55.2559C130.455 55.2559 131.085 55.5605 131.741 56.1699L130.897 57.5762C130.341 57.0488 129.825 56.7852 129.351 56.7852C128.835 56.7852 128.387 57.0312 128.006 57.5234C127.631 58.0156 127.443 58.5986 127.443 59.2725V63.5H125.835V55.4141H127.443ZM138.017 63.5V62.4717C137.677 62.8408 137.287 63.1279 136.848 63.333C136.414 63.5381 135.98 63.6406 135.547 63.6406C135.037 63.6406 134.565 63.5146 134.132 63.2627C133.704 63.0049 133.379 62.6592 133.156 62.2256C132.939 61.7861 132.831 61.0596 132.831 60.0459V55.4141H134.431V60.0283C134.431 60.8779 134.551 61.4727 134.791 61.8125C135.037 62.1465 135.465 62.3135 136.074 62.3135C136.836 62.3135 137.483 61.9414 138.017 61.1973V55.4141H139.616V63.5H138.017ZM147.931 61.6104V63.1924C147.128 63.4912 146.343 63.6406 145.575 63.6406C144.31 63.6406 143.299 63.2656 142.543 62.5156C141.793 61.7656 141.418 60.7607 141.418 59.501C141.418 58.2295 141.784 57.2041 142.517 56.4248C143.249 55.6455 144.213 55.2559 145.408 55.2559C145.824 55.2559 146.196 55.2969 146.524 55.3789C146.858 55.4551 147.269 55.6016 147.755 55.8184V57.5234C146.946 57.0078 146.196 56.75 145.505 56.75C144.784 56.75 144.192 57.0049 143.729 57.5146C143.267 58.0186 143.035 58.6631 143.035 59.4482C143.035 60.2744 143.284 60.9307 143.782 61.417C144.286 61.9033 144.963 62.1465 145.812 62.1465C146.428 62.1465 147.134 61.9678 147.931 61.6104ZM148.625 56.6973L151.631 53.7441V55.4141H154.188V56.8555H151.631V60.8193C151.631 61.7451 152.015 62.208 152.782 62.208C153.356 62.208 153.963 62.0146 154.602 61.6279V63.1221C153.986 63.4678 153.315 63.6406 152.589 63.6406C151.856 63.6406 151.247 63.4268 150.761 62.999C150.608 62.8701 150.482 62.7266 150.383 62.5684C150.283 62.4043 150.198 62.1934 150.128 61.9355C150.063 61.6719 150.031 61.1738 150.031 60.4414V56.8555H148.625V56.6973ZM156.579 52.0127C156.843 52.0127 157.068 52.1035 157.256 52.2852C157.443 52.4668 157.537 52.6895 157.537 52.9531C157.537 53.2109 157.443 53.4336 157.256 53.6211C157.068 53.8086 156.843 53.9023 156.579 53.9023C156.333 53.9023 156.116 53.8086 155.929 53.6211C155.741 53.4277 155.647 53.2051 155.647 52.9531C155.647 52.707 155.741 52.4902 155.929 52.3027C156.116 52.1094 156.333 52.0127 156.579 52.0127ZM155.788 55.4141H157.388V63.5H155.788V55.4141ZM163.575 55.3965C164.806 55.3965 165.828 55.7949 166.643 56.5918C167.457 57.3828 167.864 58.3789 167.864 59.5801C167.864 60.7461 167.451 61.7158 166.625 62.4893C165.799 63.2568 164.759 63.6406 163.505 63.6406C162.292 63.6406 161.278 63.251 160.464 62.4717C159.649 61.6865 159.242 60.708 159.242 59.5361C159.242 58.3525 159.652 57.3682 160.473 56.583C161.299 55.792 162.333 55.3965 163.575 55.3965ZM163.487 56.8379C162.72 56.8379 162.09 57.0898 161.598 57.5938C161.105 58.0977 160.859 58.7393 160.859 59.5186C160.859 60.292 161.111 60.9248 161.615 61.417C162.119 61.9033 162.767 62.1465 163.558 62.1465C164.343 62.1465 164.984 61.9004 165.482 61.4082C165.986 60.9102 166.238 60.2744 166.238 59.501C166.238 58.7334 165.978 58.0977 165.456 57.5938C164.935 57.0898 164.278 56.8379 163.487 56.8379ZM171.239 55.4141V56.4424C171.954 55.6514 172.766 55.2559 173.674 55.2559C174.178 55.2559 174.646 55.3877 175.08 55.6514C175.514 55.9092 175.842 56.2666 176.064 56.7236C176.293 57.1748 176.407 57.8926 176.407 58.877V63.5H174.808V58.8945C174.808 58.0684 174.682 57.4795 174.43 57.1279C174.178 56.7705 173.756 56.5918 173.164 56.5918C172.408 56.5918 171.767 56.9697 171.239 57.7256V63.5H169.604V55.4141H171.239ZM183.869 51.2217H185.627V61.9004H191.155V63.5H183.869V51.2217ZM193.3 52.0127C193.563 52.0127 193.789 52.1035 193.977 52.2852C194.164 52.4668 194.258 52.6895 194.258 52.9531C194.258 53.2109 194.164 53.4336 193.977 53.6211C193.789 53.8086 193.563 53.9023 193.3 53.9023C193.054 53.9023 192.837 53.8086 192.649 53.6211C192.462 53.4277 192.368 53.2051 192.368 52.9531C192.368 52.707 192.462 52.4902 192.649 52.3027C192.837 52.1094 193.054 52.0127 193.3 52.0127ZM192.509 55.4141H194.108V63.5H192.509V55.4141ZM203.056 57.6289V63.5H201.447V59C201.447 58.1035 201.327 57.4795 201.087 57.1279C200.847 56.7705 200.428 56.5918 199.83 56.5918C199.496 56.5918 199.188 56.668 198.907 56.8203C198.632 56.9727 198.315 57.2422 197.958 57.6289V63.5H196.358V55.4141H197.958V56.4775C198.772 55.6631 199.569 55.2559 200.349 55.2559C201.374 55.2559 202.168 55.7422 202.73 56.7148C203.586 55.7305 204.479 55.2383 205.411 55.2383C206.196 55.2383 206.841 55.5254 207.345 56.0996C207.854 56.6738 208.109 57.5498 208.109 58.7275V63.5H206.51V58.71C206.51 58.0361 206.372 57.5205 206.097 57.1631C205.821 56.8057 205.426 56.627 204.91 56.627C204.248 56.627 203.63 56.9609 203.056 57.6289ZM211.142 52.0127C211.405 52.0127 211.631 52.1035 211.818 52.2852C212.006 52.4668 212.1 52.6895 212.1 52.9531C212.1 53.2109 212.006 53.4336 211.818 53.6211C211.631 53.8086 211.405 53.9023 211.142 53.9023C210.896 53.9023 210.679 53.8086 210.491 53.6211C210.304 53.4277 210.21 53.2051 210.21 52.9531C210.21 52.707 210.304 52.4902 210.491 52.3027C210.679 52.1094 210.896 52.0127 211.142 52.0127ZM210.351 55.4141H211.95V63.5H210.351V55.4141ZM213.137 56.6973L216.143 53.7441V55.4141H218.7V56.8555H216.143V60.8193C216.143 61.7451 216.526 62.208 217.294 62.208C217.868 62.208 218.475 62.0146 219.113 61.6279V63.1221C218.498 63.4678 217.827 63.6406 217.101 63.6406C216.368 63.6406 215.759 63.4268 215.272 62.999C215.12 62.8701 214.994 62.7266 214.895 62.5684C214.795 62.4043 214.71 62.1934 214.64 61.9355C214.575 61.6719 214.543 61.1738 214.543 60.4414V56.8555H213.137V56.6973ZM227.155 59.5977H221.469C221.51 60.3711 221.768 60.9863 222.242 61.4434C222.723 61.9004 223.341 62.1289 224.097 62.1289C225.151 62.1289 226.124 61.8008 227.015 61.1445V62.709C226.522 63.0371 226.033 63.2715 225.547 63.4121C225.066 63.5527 224.501 63.623 223.851 63.623C222.96 63.623 222.239 63.4385 221.688 63.0693C221.138 62.7002 220.695 62.2051 220.361 61.584C220.033 60.957 219.869 60.2334 219.869 59.4131C219.869 58.1826 220.218 57.1836 220.915 56.416C221.612 55.6426 222.518 55.2559 223.631 55.2559C224.703 55.2559 225.559 55.6309 226.197 56.3809C226.836 57.1309 227.155 58.1357 227.155 59.3955V59.5977ZM221.504 58.6396H225.573C225.532 58.001 225.342 57.5088 225.002 57.1631C224.662 56.8174 224.205 56.6445 223.631 56.6445C223.057 56.6445 222.585 56.8174 222.216 57.1631C221.853 57.5088 221.615 58.001 221.504 58.6396ZM234.292 51.2217H235.9V63.5H232.481C231.286 63.5 230.331 63.1221 229.616 62.3662C228.907 61.6104 228.553 60.5967 228.553 59.3252C228.553 58.1357 228.925 57.1572 229.669 56.3896C230.419 55.6221 231.374 55.2383 232.534 55.2383C233.073 55.2383 233.659 55.3525 234.292 55.5811V51.2217ZM234.292 62.1289V57.0049C233.794 56.7529 233.29 56.627 232.78 56.627C231.983 56.627 231.348 56.8877 230.873 57.4092C230.404 57.9307 230.17 58.6338 230.17 59.5186C230.17 60.3506 230.375 60.9922 230.785 61.4434C231.031 61.7129 231.292 61.8945 231.567 61.9883C231.843 62.082 232.338 62.1289 233.053 62.1289H234.292Z" fill="#000080"/>
<path d="M27.4668 44.6047C27.6354 41.7838 27.8059 38.9629 27.9745 36.1421C27.9905 35.8669 28.0327 35.6162 28.2735 35.4287C30.9042 33.3721 33.4265 31.181 36.0753 28.7861C36.0211 29.9846 35.9809 30.9731 35.9288 31.9617C35.9047 32.3999 35.7783 32.8442 35.8304 33.2702C36.1415 35.8241 35.0298 37.6646 33.1997 39.3013C31.2834 41.0154 29.5216 42.9049 27.6915 44.7189C27.6173 44.6822 27.543 44.6435 27.4688 44.6068L27.4668 44.6047Z" fill="#FF9933"/>
<path d="M241.572 43.5727C241.437 43.9885 241.084 43.8601 240.809 43.8581C239.509 43.854 238.032 44.2086 236.957 43.6991C235.913 43.2038 235.602 41.6221 234.958 40.5235C234.073 39.0132 233.238 37.4723 232.391 35.9396C232.205 35.6033 232.042 35.3832 231.565 35.3974C229.462 35.4647 227.357 35.4851 225.254 35.4667C224.602 35.4606 224.397 35.644 224.409 36.3187C224.449 38.5505 224.401 40.7844 224.439 43.0183C224.451 43.6909 224.244 43.907 223.586 43.8764C222.553 43.8275 221.515 43.8458 220.48 43.8703C220.014 43.8825 219.836 43.7398 219.84 43.2425C219.856 39.5533 219.854 35.8662 219.844 32.177C219.844 31.7246 219.986 31.6369 220.434 31.6634C223.771 31.8632 227.112 31.7939 230.451 31.7918C233.766 31.7898 236.674 29.1218 236.898 25.9075C237.129 22.6035 234.649 19.5014 231.286 19.1549C228.095 18.8247 224.877 19.0815 221.672 19.0407C219.852 19.0183 219.852 19.0367 219.852 17.1941C219.852 15.3516 219.852 15.3577 221.614 15.3882C225.019 15.4474 228.43 15.1722 231.826 15.5268C236.888 16.0568 240.091 18.8125 241.554 23.7653C241.568 23.8142 241.652 23.8407 241.702 23.8774V27.1263C241.261 30.0104 239.706 32.1424 237.324 33.6894C236.726 34.0767 236.722 34.4598 237.047 35.0285C238.417 37.4254 239.734 39.855 241.08 42.2662C241.313 42.682 241.542 43.0876 241.578 43.5747L241.572 43.5727Z" fill="#000080"/>
<path d="M125.267 24.9763C124.392 26.5804 123.59 28.0479 122.789 29.5174C120.339 34.0117 117.875 38.4958 115.463 43.0104C115.12 43.6545 114.734 43.8502 114.058 43.8257C112.76 43.7788 111.457 43.8114 109.979 43.8114C115.077 34.3133 120.116 24.9294 125.261 15.3457C130.386 24.8886 135.421 34.2604 140.467 43.6565C140.186 43.893 139.911 43.8074 139.669 43.8074C135.16 43.8135 130.651 43.7931 126.142 43.8318C125.389 43.8379 125.149 43.6423 125.209 42.88C125.277 42.0056 125.267 41.119 125.211 40.2446C125.167 39.5495 125.361 39.3151 126.084 39.3294C128.353 39.3763 130.623 39.3477 133.081 39.3477C130.462 34.5335 127.906 29.8313 125.267 24.9804V24.9763Z" fill="#000080"/>
<path d="M212.452 43.8095C209.175 43.8095 206.075 43.8095 202.973 43.8095C201.303 43.8095 199.633 43.7891 197.964 43.8197C197.394 43.8299 197.107 43.732 197.147 43.0574C197.205 42.079 197.197 41.0946 197.149 40.1162C197.117 39.4742 197.356 39.3193 197.954 39.3295C199.924 39.3621 201.895 39.3478 203.865 39.3356C204.183 39.3356 204.522 39.4416 204.907 39.1888C202.354 34.4989 199.804 29.8151 197.171 24.9764C195.997 27.1226 194.906 29.1139 193.82 31.1094C191.649 35.1022 189.476 39.0931 187.319 43.0941C187.056 43.5832 186.777 43.8482 186.171 43.8258C184.804 43.7728 183.436 43.8095 181.883 43.8095C186.984 34.3094 192.022 24.9234 197.165 15.3438C202.278 24.8643 207.317 34.2421 212.454 43.8095H212.452Z" fill="#000080"/>
<path d="M104.935 35.0122C103.941 37.2583 102.549 39.0194 100.743 40.4645C93.0292 46.6382 81.168 43.907 77.1507 35.0285C74.5341 29.2461 76.5026 22.1939 81.8101 18.3804C85.388 15.8102 89.3651 14.9541 93.6834 15.5778C94.2432 15.6594 94.5964 15.8143 94.5362 16.5195C94.464 17.3592 94.478 18.2112 94.5322 19.055C94.5803 19.8051 94.3436 19.852 93.6754 19.6869C88.3397 18.3804 83.0141 21.2237 81.2242 26.2887C79.1032 32.2912 83.3954 39.0927 89.6801 39.7225C93.7315 40.1282 97.0104 38.7462 99.4986 35.4769C99.7153 35.1936 99.91 34.998 100.303 35.0041C101.802 35.0265 103.301 35.0122 104.937 35.0122H104.935Z" fill="#000080"/>
<path d="M169.293 33.094C170.142 31.2066 170.931 29.468 171.707 27.7213C173.405 23.9037 175.109 20.0902 176.782 16.2624C177.057 15.6346 177.364 15.3187 178.103 15.3636C179.333 15.439 180.571 15.3839 181.813 15.3839C181.664 16.1809 169.879 42.8285 169.221 43.8293C165.025 34.372 160.856 24.9738 156.604 15.3901C158.187 15.3901 159.63 15.3819 161.074 15.3941C161.562 15.3982 161.586 15.869 161.728 16.185C164.122 21.5353 166.508 26.8897 168.896 32.2441C169 32.4764 169.113 32.7047 169.295 33.094H169.293Z" fill="#000080"/>
<path d="M141.018 15.3836C142.557 15.3836 143.947 15.406 145.338 15.3734C146.02 15.3571 146.036 15.9298 146.207 16.3089C148.532 21.4982 150.836 26.6977 153.146 31.8931C153.294 32.2274 153.459 32.5515 153.714 33.0835C154.789 30.6784 155.79 28.4363 156.91 25.9313C157.368 27.0626 157.659 28.047 158.144 28.9194C158.987 30.4297 158.909 31.7749 158.164 33.3606C156.705 36.4628 155.489 39.6812 154.171 42.8506C154.047 43.1502 153.908 43.4417 153.685 43.939C149.427 34.341 145.25 24.9224 141.018 15.3836Z" fill="#000080"/>
<path d="M99.6643 31.1868C98.1954 31.1868 96.7245 31.1603 95.2557 31.1991C94.6637 31.2154 94.4129 31.0747 94.451 30.4225C94.5052 29.5114 94.4791 28.5963 94.4591 27.6831C94.451 27.2551 94.6015 27.086 95.037 27.088C98.1432 27.1002 101.249 27.1023 104.354 27.086C104.869 27.0839 104.96 27.3224 104.95 27.7667C104.93 28.6798 104.916 29.595 104.954 30.5061C104.976 31.0401 104.797 31.2072 104.271 31.197C102.736 31.1685 101.199 31.1868 99.6623 31.1868H99.6643Z" fill="#000080"/>
<path d="M37.9434 33.7342C38.0898 31.4514 38.2363 29.1686 38.3928 26.8858C38.4029 26.7309 38.4631 26.5414 38.5694 26.4374C40.5159 24.5113 42.4382 22.5607 44.4729 20.3105C44.3566 22.4446 44.2602 24.283 44.1479 26.1215C44.1378 26.2764 44.0395 26.4415 43.9432 26.574C42.1212 29.0728 40.1868 31.4779 37.9434 33.7322V33.7342Z" fill="#FF9933"/>
<path d="M45.5938 23.9456C45.6921 22.3394 45.7945 20.7354 45.8848 19.1292C45.9028 18.7991 46.0694 18.5708 46.2841 18.3466C46.6774 17.9349 47.0506 17.5048 47.4319 17.0808C48.3068 16.1086 49.0011 16.1453 49.8519 17.1542C50.0746 17.4171 49.9462 17.57 49.8278 17.7677C48.5516 19.8956 47.2112 21.9787 45.5918 23.9476L45.5938 23.9456Z" fill="#FF9933"/>
</g>
<defs>
<clipPath id="clip0_30_1790">
<rect width="241.702" height="86" fill="white"/>
</clipPath>
</defs>
</svg>
