<svg width="24" height="25" viewBox="0 0 24 25" fill="none" xmlns="http://www.w3.org/2000/svg">
<mask id="mask0_1843_6958" style="mask-type:alpha" maskUnits="userSpaceOnUse" x="0" y="0" width="24" height="25">
<path fill-rule="evenodd" clip-rule="evenodd" d="M11.2929 5.30852C11.6834 4.91799 12.3166 4.91799 12.7071 5.30852C13.0976 5.69904 13.0976 6.33221 12.7071 6.72273L8.41421 11.0156L18 11.0156C18.5523 11.0156 19 11.4633 19 12.0156C19 12.5679 18.5523 13.0156 18 13.0156L8.41421 13.0156L12.7071 17.3085C13.0976 17.699 13.0976 18.3322 12.7071 18.7227C12.3166 19.1133 11.6834 19.1133 11.2929 18.7227L5.29289 12.7227C4.90237 12.3322 4.90237 11.699 5.29289 11.3085L11.2929 5.30852Z" fill="#0C6478"/>
</mask>
<g mask="url(#mask0_1843_6958)">
<rect y="0.015625" width="24" height="24" fill="#0C6478"/>
</g>
</svg>
