<svg width="16" height="16" viewBox="0 0 16 16" fill="none" xmlns="http://www.w3.org/2000/svg">
<mask id="mask0_2225_8439" style="mask-type:alpha" maskUnits="userSpaceOnUse" x="0" y="0" width="16" height="16">
<path fill-rule="evenodd" clip-rule="evenodd" d="M11.3725 6.0406C11.763 5.65008 11.763 5.01691 11.3725 4.62639C10.9819 4.23587 10.3488 4.23587 9.95826 4.62639L7.9987 6.58595L6.03914 4.62639C5.64861 4.23587 5.01545 4.23587 4.62492 4.62639C4.2344 5.01691 4.2344 5.65008 4.62492 6.0406L6.58448 8.00016L4.62492 9.95972C4.2344 10.3502 4.2344 10.9834 4.62492 11.3739C5.01545 11.7645 5.64861 11.7645 6.03914 11.3739L7.9987 9.41438L9.95826 11.3739C10.3488 11.7645 10.9819 11.7645 11.3725 11.3739C11.763 10.9834 11.763 10.3502 11.3725 9.95972L9.41291 8.00016L11.3725 6.0406Z" fill="#202130"/>
</mask>
<g mask="url(#mask0_2225_8439)">
<rect width="16" height="16" fill="#B54242"/>
</g>
</svg>
