<svg width="24" height="24" viewBox="0 0 24 24" fill="none" xmlns="http://www.w3.org/2000/svg">
<path opacity="0.312" d="M24 0H0V24H24V0Z" fill="white"/>
<path d="M5.6727 19.476H19.0677C19.4001 19.4971 19.7332 19.4486 20.0457 19.3335C20.3582 19.2185 20.6433 19.0395 20.8827 18.808C21.348 18.2554 21.5785 17.5425 21.5247 16.822V7.64602C21.5512 7.28769 21.5049 6.9277 21.3886 6.58775C21.2722 6.2478 21.0882 5.93493 20.8477 5.66802C20.5754 5.42949 20.2583 5.24758 19.9149 5.13289C19.5715 5.0182 19.2087 4.97303 18.8477 5.00002H5.4527C5.121 4.97951 4.78866 5.02831 4.47686 5.14332C4.16506 5.25833 3.88063 5.43702 3.6417 5.66802C3.17704 6.2179 2.94654 6.92807 2.9997 7.64602V16.822C2.97295 17.1817 3.01922 17.543 3.13574 17.8843C3.25225 18.2256 3.4366 18.5398 3.6777 18.808C3.94943 19.0459 4.26571 19.2275 4.60819 19.3422C4.95066 19.4568 5.3125 19.5023 5.6727 19.476ZM5.6547 18.052C5.48868 18.063 5.32213 18.0411 5.1646 17.9875C5.00706 17.934 4.86165 17.8499 4.7367 17.74C4.62181 17.6126 4.53409 17.463 4.4789 17.3006C4.42371 17.1381 4.4022 16.9661 4.4157 16.795V7.67202C4.40269 7.50237 4.42444 7.33185 4.47964 7.1709C4.53483 7.00996 4.62231 6.86197 4.7367 6.73602C4.86165 6.62615 5.00706 6.54204 5.1646 6.4885C5.32213 6.43496 5.48868 6.41305 5.6547 6.42402H18.8647C19.0307 6.41305 19.1973 6.43496 19.3548 6.4885C19.5123 6.54204 19.6577 6.62615 19.7827 6.73602C19.8976 6.86347 19.9853 7.01299 20.0405 7.17547C20.0957 7.33794 20.1172 7.50996 20.1037 7.68102V16.804C20.1167 16.9737 20.095 17.1442 20.0398 17.3051C19.9846 17.4661 19.8971 17.6141 19.7827 17.74C19.6577 17.8499 19.5123 17.934 19.3548 17.9875C19.1973 18.0411 19.0307 18.063 18.8647 18.052H5.6547ZM12.2727 14.475C12.5774 14.4738 12.8783 14.408 13.1557 14.282C13.4852 14.125 13.7842 13.9107 14.0387 13.649L20.7537 7.04002L19.8217 6.10002L13.2577 12.585C13.1102 12.7412 12.9379 12.872 12.7477 12.972C12.6001 13.0456 12.4376 13.0846 12.2727 13.086C12.1072 13.0842 11.9445 13.0435 11.7977 12.967C11.6119 12.8669 11.4432 12.7379 11.2977 12.585L4.6977 6.07202L3.7577 7.01202L10.4977 13.649C10.7522 13.9107 11.0512 14.125 11.3807 14.282C11.6614 14.4088 11.9657 14.4746 12.2737 14.475H12.2727ZM19.7267 18.298L20.6587 17.358L15.3227 12.067L14.3827 13.007L19.7267 18.298ZM3.8827 17.358L4.8147 18.298L10.1637 13.007L9.2237 12.067L3.8827 17.358Z" fill="#0C6478"/>
</svg>
