<svg width="24" height="24" viewBox="0 0 24 24" fill="none" xmlns="http://www.w3.org/2000/svg">
<path opacity="0.312" d="M24 0H0V24H24V0Z" fill="white"/>
<path d="M6.88007 12.8671C6.33308 12.1214 5.87215 11.3163 5.50607 10.4671C5.18561 9.7475 5.01351 8.97069 5.00007 8.18308C4.9972 7.71672 5.08341 7.2541 5.25407 6.82008C5.43335 6.37817 5.70628 5.98037 6.05407 5.65408C6.24126 5.45347 6.46647 5.29208 6.7166 5.17929C6.96673 5.0665 7.23679 5.00456 7.51107 4.99708C7.70891 4.99632 7.90452 5.03899 8.08407 5.12208C8.27279 5.21153 8.43432 5.3496 8.55207 5.52209L10.1761 7.81109C10.2889 7.96321 10.3842 8.12757 10.4601 8.30108C10.5195 8.43679 10.5515 8.58295 10.5541 8.73109C10.553 8.90769 10.5035 9.08061 10.4111 9.23109C10.2996 9.41222 10.1677 9.57998 10.0181 9.73109L9.48207 10.2831C9.44506 10.3191 9.41591 10.3624 9.39646 10.4103C9.37702 10.4581 9.36769 10.5095 9.36907 10.5611C9.36908 10.6162 9.3782 10.6709 9.39607 10.7231C9.41107 10.771 9.42945 10.8178 9.45107 10.8631C9.63585 11.1846 9.85333 11.4862 10.1001 11.7631C10.4134 12.1304 10.7531 12.5001 11.1191 12.8721C11.4851 13.2441 11.8554 13.5851 12.2301 13.8951C12.5094 14.1426 12.813 14.3613 13.1361 14.5481C13.1711 14.5631 13.2151 14.5811 13.2671 14.6011C13.3213 14.622 13.379 14.6325 13.4371 14.6321C13.4907 14.6333 13.5441 14.6232 13.5935 14.6023C13.643 14.5815 13.6875 14.5504 13.7241 14.5111L14.2601 13.9831C14.4086 13.8285 14.5767 13.694 14.7601 13.5831C14.9113 13.4929 15.084 13.4449 15.2601 13.4441C15.4078 13.4462 15.5538 13.4768 15.6901 13.5341C15.8632 13.6064 16.0279 13.6976 16.1811 13.8061L18.4991 15.4521C18.6672 15.5629 18.8006 15.7188 18.8841 15.9021C18.959 16.075 18.9975 16.2616 18.9971 16.4501C18.9951 16.7147 18.9358 16.9757 18.8231 17.2151C18.7026 17.4764 18.542 17.7174 18.3471 17.9291C18.0306 18.2877 17.6385 18.5715 17.1991 18.7601C16.7658 18.9378 16.3014 19.0276 15.8331 19.0241C15.0432 19.009 14.2646 18.8341 13.5441 18.5101C12.6889 18.1397 11.8784 17.6737 11.1281 17.1211C10.3109 16.5283 9.54189 15.8719 8.82807 15.1581C8.11959 14.4468 7.46824 13.6807 6.88007 12.8671Z" fill="#0C6478"/>
</svg>
